<svg viewBox="0 0 595.28 337.3" xmlns="http://www.w3.org/2000/svg" xmlns:xlink="http://www.w3.org/1999/xlink"><clipPath id="a" transform="translate(0 -17.38)"><path d="m.8 0h595.28v297.64h-595.28z"/></clipPath><symbol id="b" viewBox="0 0 459.01 260.08"><path d="m203.6 68.08h51.81v192h-51.81z" fill="#ba4127"/><path d="m245.03 44.6h10.37v23.48h-10.37z" fill="#e6dac0"/><path d="m203.6 44.6h10.37v23.48h-10.37z" fill="#e6dac0"/><path d="m255.41 44.6h-6.5l6.5 17.96z" fill="#e6dac0"/><path d="m248.91 44.6h-3.88v23.48h10.38v-5.52z" fill="#d6cab5"/><path d="m210.1 44.6h3.87v23.48h-10.37v-5.52z" fill="#d6cab5"/><path d="m238.41 21.11h-17.81l-17 46.97h51.81z" fill="#f4e9d2"/><path d="m211.05 55.59h37v1.5h-37z" fill="#e6dac0"/><path d="m251.7 68.34-17-46.97 1.41-.51 17 46.97z" fill="#e6dac0"/><path d="m207.31 68.34-1.41-.51 17-46.97 1.41.51z" fill="#e6dac0"/><path d="m217.64 56.75h23.73v22.67h-23.73z" fill="#c3482e"/><path d="m221.5 56.75 8-12.43 8 12.43z" fill="#ba4127"/><circle cx="229.5" cy="68.08" fill="#ba4127" r="9"/><circle cx="229.5" cy="68.08" fill="#f4e9d2" r="7.5"/><path d="m229.5 74.46a6.38 6.38 0 1 1 6.38-6.38 6.38 6.38 0 0 1 -6.38 6.38zm0-12a5.63 5.63 0 1 0 5.63 5.62 5.62 5.62 0 0 0 -5.63-5.62z" fill="#816663"/><path d="m229.5 72.28a4.2 4.2 0 1 1 4.2-4.2 4.2 4.2 0 0 1 -4.2 4.2zm0-7.64a3.45 3.45 0 1 0 3.5 3.44 3.45 3.45 0 0 0 -3.5-3.44z" fill="#816663"/><path d="m229.13 62.08h.75v2.18h-.75z" fill="#816663"/><path d="m233.32 67.71h2.18v.75h-2.18z" fill="#816663"/><path d="m229.13 71.9h.75v2.18h-.75z" fill="#816663"/><path d="m223.5 67.71h2.18v.75h-2.18z" fill="#816663"/><path d="m230.56 69.67-1.39-1.41-1.39-2.64.66-.35 1.37 2.59 1.28 1.28z" fill="#816663"/><path d="m217.64 79.42h23.73v2.4h-23.73z" fill="#f4e9d2"/><path d="m241.37 68.08h2.08v13.74h-2.08z" fill="#7c2b1c" opacity=".1"/><path d="m231.27 91.94-4.59-3.16v-6.26l10.79-.7v6.26l-4.6 3.15z" fill="#7c2b1c" opacity=".1"/><path d="m229.5 96.06v-8.83h4.75v8.83z" fill="#7c2b1c" opacity=".1"/><path d="m232.25 89.23h-5.57l-3.21-2.21v-5.2h12v5.2z" fill="#c3482e"/><path d="m226.68 89.23h5.57v6.83h-5.57z" fill="#c3482e"/><path d="m226.68 96.06h5.57v3.09h-5.57z" fill="#f4e9d2"/><path d="m227.87 99.16h3.18v1.36h-3.18z" fill="#ddc5bd"/><path d="m226.68 109.01h5.57v3.1h-5.57z" fill="#f4e9d2"/><path d="m227.87 109.01h3.19v-1.35h-3.19z" fill="#ddc5bd"/><path d="m227.87 100.51h3.18v7.14h-3.18z" fill="#f4e9d2"/><path d="m220.68 103.18a6.78 6.78 0 0 1 6.78 6.78v31a0 0 0 0 1 0 0h-13.56a0 0 0 0 1 0 0v-30.96a6.78 6.78 0 0 1 6.78-6.82z" fill="#7c2b1c"/><path d="m238.25 103.18a6.78 6.78 0 0 1 6.75 6.82v31a0 0 0 0 1 0 0h-13.53a0 0 0 0 1 0 0v-31a6.78 6.78 0 0 1 6.78-6.82z" fill="#7c2b1c"/><path d="m220.68 103.18a6.78 6.78 0 0 0 -6.78 6.82v3a6.79 6.79 0 0 1 13.57 0v-3a6.78 6.78 0 0 0 -6.79-6.82z" fill="#5d1d18"/><path d="m238.25 103.18a6.77 6.77 0 0 0 -6.78 6.78v3a6.78 6.78 0 0 1 13.53.04v-3a6.77 6.77 0 0 0 -6.75-6.82z" fill="#5d1d18"/><path d="m238.75 140.92h-1v-27.92a2.89 2.89 0 1 0 -5.78 0h-1a3.89 3.89 0 1 1 7.78 0z" fill="#f7ded0"/><path d="m238.75 140.92h-1v-27.92a3.89 3.89 0 1 1 7.78 0h-1a2.89 2.89 0 1 0 -5.78 0z" fill="#f7ded0"/><path d="m221.18 140.92h-1v-27.92a2.89 2.89 0 1 0 -5.78 0h-1a3.89 3.89 0 1 1 7.78 0z" fill="#f7ded0"/><path d="m221.18 140.92h-1v-27.92a3.9 3.9 0 1 1 7.79 0h-1a2.9 2.9 0 1 0 -5.79 0z" fill="#f7ded0"/><path d="m214.9 115.58h-11.3v-2h9.3v-3.69a7.79 7.79 0 0 1 15.57 0v4.69h-2v-4.69a5.79 5.79 0 0 0 -11.57 0z" fill="#f7ded0"/><path d="m255.41 115.58h-11.41v-5.69a5.78 5.78 0 1 0 -11.56 0v4.69h-2v-4.69a7.78 7.78 0 1 1 15.56 0v3.69h9.38z" fill="#f7ded0"/><path d="m226.48 111.22h6.01v6.36h-6.01z" fill="#f4e9d2"/><path d="m211.97 132.58h35v8.33h-35z" fill="#f4e9d2"/><path d="m212.97 133.58h1.13v6.33h-1.13z" fill="#ad3b25"/><path d="m215.09 133.58h1.13v6.33h-1.13z" fill="#ad3b25"/><path d="m217.22 133.58h1.13v6.33h-1.13z" fill="#ad3b25"/><path d="m219.34 133.58h1.12v6.33h-1.12z" fill="#ad3b25"/><path d="m221.47 133.58h1.13v6.33h-1.13z" fill="#ad3b25"/><path d="m223.59 133.58h1.13v6.33h-1.13z" fill="#ad3b25"/><path d="m225.72 133.58h1.13v6.33h-1.13z" fill="#ad3b25"/><path d="m227.84 133.58h1.12v6.33h-1.12z" fill="#ad3b25"/><path d="m229.97 133.58h1.13v6.33h-1.13z" fill="#ad3b25"/><path d="m232.09 133.58h1.13v6.33h-1.13z" fill="#ad3b25"/><path d="m234.22 133.58h1.13v6.33h-1.13z" fill="#ad3b25"/><path d="m236.34 133.58h1.13v6.33h-1.13z" fill="#ad3b25"/><path d="m238.47 133.58h1.13v6.33h-1.13z" fill="#ad3b25"/><path d="m240.59 133.58h1.13v6.33h-1.13z" fill="#ad3b25"/><path d="m242.72 133.58h1.13v6.33h-1.13z" fill="#ad3b25"/><path d="m244.84 133.58h1.13v6.33h-1.13z" fill="#ad3b25"/><path d="m211.12 77h-1v-2.32a3 3 0 1 0 -6 0v2.32h-1v-2.32a4 4 0 1 1 8 0z" fill="#ffede3"/><path d="m218.14 77h-1v-2.32a3 3 0 0 0 -6 0v2.32h-1v-2.32a4 4 0 0 1 8 0z" fill="#ffede3"/><path d="m248.89 77h-1v-2.32a3 3 0 1 0 -6 0v2.32h-1v-2.32a4 4 0 0 1 8 0z" fill="#ffede3"/><path d="m255.91 77h-1v-2.32a3 3 0 1 0 -6 0v2.32h-1v-2.32a4 4 0 1 1 8 0z" fill="#ffede3"/><path d="m215.55 41.57h28v1.5h-28z" fill="#e6dac0"/><path d="m255.41 69.08h-15.04v-11.33h-3.41l-7.46-11.58-7.45 11.58h-3.41v11.33h-15.04v-2h13.04v-11.33h4.32l8.54-13.27 8.55 13.27h4.32v11.33h13.04z" fill="#ffede3"/><path d="m218.42 213.53v-36.91a5.83 5.83 0 1 1 11.65 0v36.91z" fill="#7c2b1c"/><path d="m243.73 184.71h-2v-8.09a5.82 5.82 0 0 0 -10.8-3l-.86 1.4-.85-1.4a5.82 5.82 0 0 0 -10.8 3v8.09h-2v-8.09a7.84 7.84 0 0 1 7.83-7.83 7.72 7.72 0 0 1 5.82 2.61 7.83 7.83 0 0 1 13.66 5.22z" fill="#f7ded0"/><path d="m230.07 213.53v-36.91a5.83 5.83 0 1 1 11.66 0v36.91z" fill="#7c2b1c"/><path d="m224.25 172.79a5.83 5.83 0 0 1 5.82 5.83v-2a5.83 5.83 0 1 0 -11.65 0v2a5.83 5.83 0 0 1 5.83-5.83z" fill="#5d1d18"/><path d="m235.9 170.79a5.84 5.84 0 0 0 -5.83 5.83v2a5.83 5.83 0 1 1 11.66 0v-2a5.84 5.84 0 0 0 -5.83-5.83z" fill="#5d1d18"/><path d="m218.42 212.12h23.31v1.4h-23.31z" fill="#d04c31"/><path d="m228.57 179.21h3v2.63h-3z" fill="#ba4127"/><path d="m229.07 181.83h2v31.7h-2z" fill="#f4e9d2"/><path d="m229.07 178.33h2v.88h-2z" fill="#7c2b1c" opacity=".1"/><path d="m229.07 173.35h2v4.98h-2z" fill="#ba4127"/><path d="m229.07 181.83h2v.88h-2z" fill="#d2b5a8"/><path d="m211.97 140.92h35v2.35h-35z" fill="#7c2b1c" opacity=".1"/><path d="m230.07 230.83a11.65 11.65 0 0 1 11.65 11.65v17.6a0 0 0 0 1 0 0h-23.3a0 0 0 0 1 0 0v-17.6a11.65 11.65 0 0 1 11.65-11.65z" fill="#f4e9d2"/><path d="m221.42 260.08v-17.59a8.66 8.66 0 1 1 17.31 0v17.59z" fill="#7c2b1c"/><path d="m230.07 233.83a8.67 8.67 0 0 0 -8.65 8.66v2a8.66 8.66 0 1 1 17.31 0v-2a8.67 8.67 0 0 0 -8.66-8.66z" fill="#5d1d18"/><path d="m219.5 19.25h20v1.86h-20z" fill="#e6dac0"/><path d="m223 11.21h13v8.23h-13z" fill="#e6dac0"/><path d="m234.37 12.08h.75v6.56h-.75z" fill="#9fd1d3"/><path d="m232.87 12.08h.75v6.56h-.75z" fill="#9fd1d3"/><path d="m231.37 12.08h.75v6.56h-.75z" fill="#9fd1d3"/><path d="m229.87 12.08h.75v6.56h-.75z" fill="#9fd1d3"/><path d="m228.37 12.08h.75v6.56h-.75z" fill="#9fd1d3"/><path d="m226.87 12.08h.75v6.56h-.75z" fill="#9fd1d3"/><path d="m225.37 12.08h.75v6.56h-.75z" fill="#9fd1d3"/><path d="m223.87 12.08h.75v6.56h-.75z" fill="#9fd1d3"/><path d="m223 5.9h.89v5.31h-.89z" fill="#e6dac0"/><path d="m229.06 0h.89v11.21h-.89z" fill="#e6dac0"/><path d="m235.12 5.9h.89v5.31h-.89z" fill="#e6dac0"/><path d="m254.52 37.52h.89v7.07h-.89z" fill="#e6dac0"/><path d="m203.6 37.52h.89v7.07h-.89z" fill="#e6dac0"/><path d="m220 30.92h19v1.5h-19z" fill="#e6dac0"/><path d="m52.31 172.76h151.29v87.32h-151.29z" fill="#ba4127"/><path d="m49.31 145.55h154.29v27.21h-154.29z" fill="#ebdabe"/><path d="m49.31 142.12h154.29v3.42h-154.29z" fill="#f4e9d2"/><path d="m200.16 172.76h3.44v-30.64h-3.44z" fill="#7c2b1c" opacity=".1"/><path d="m200.16 172.76h3.44v87.32h-3.44z" fill="#7c2b1c" opacity=".5"/><path d="m52.31 176.43h3.43v83.65h-3.43z" fill="#7c2b1c" opacity=".5"/><path d="m81.55 191.79a4.83 4.83 0 0 1 4.83 4.83v16.91h-9.66v-16.91a4.83 4.83 0 0 1 4.83-4.83z" fill="#7c2b1c"/><path d="m89.88 197.62h-1v-1a7.32 7.32 0 0 0 -12.79-4.88l-.37.42-.37-.42a7.32 7.32 0 0 0 -12.78 4.88v1h-1v-1a8.31 8.31 0 0 1 14.15-5.93 8.32 8.32 0 0 1 14.16 5.93z" fill="#f7ded0"/><path d="m69.89 191.79a4.83 4.83 0 0 1 4.83 4.83v16.91h-9.65v-16.91a4.82 4.82 0 0 1 4.82-4.83z" fill="#7c2b1c"/><path d="m69.89 191.79a4.83 4.83 0 0 1 4.83 4.83v1.38a4.83 4.83 0 1 0 -9.65 0v-1.41a4.82 4.82 0 0 1 4.82-4.8z" fill="#5d1d18"/><path d="m81.55 191.79a4.83 4.83 0 0 1 4.83 4.83v1.38a4.83 4.83 0 0 0 -9.66 0v-1.41a4.83 4.83 0 0 1 4.83-4.8z" fill="#5d1d18"/><path d="m74.22 201.84h3v-2.63h-3z" fill="#ba4127"/><path d="m74.72 213.53h2v-11.69h-2z" fill="#f4e9d2"/><path d="m74.72 198.34h2v.87h-2z" fill="#7c2b1c" opacity=".1"/><path d="m74.72 201.84h2v.87h-2z" fill="#d2b5a8"/><path d="m108.86 191.79a4.83 4.83 0 0 1 4.83 4.83v16.91h-9.69v-16.91a4.83 4.83 0 0 1 4.86-4.83z" fill="#7c2b1c"/><path d="m117.19 197.62h-1v-1a7.32 7.32 0 0 0 -12.79-4.88l-.37.42-.37-.42a7.32 7.32 0 0 0 -12.78 4.88v1h-1v-1a8.31 8.31 0 0 1 14.12-5.93 8.32 8.32 0 0 1 14.16 5.93z" fill="#f7ded0"/><path d="m97.2 191.79a4.83 4.83 0 0 1 4.83 4.83v16.91h-9.65v-16.91a4.82 4.82 0 0 1 4.82-4.83z" fill="#7c2b1c"/><path d="m97.2 191.79a4.83 4.83 0 0 1 4.83 4.83v1.38a4.83 4.83 0 1 0 -9.65 0v-1.41a4.82 4.82 0 0 1 4.82-4.8z" fill="#5d1d18"/><path d="m108.86 191.79a4.83 4.83 0 0 1 4.83 4.83v1.38a4.83 4.83 0 0 0 -9.66 0v-1.41a4.83 4.83 0 0 1 4.83-4.8z" fill="#5d1d18"/><path d="m101.53 201.84h3v-2.63h-3z" fill="#ba4127"/><path d="m102.03 213.53h2v-11.69h-2z" fill="#f4e9d2"/><path d="m102.03 198.34h2v.87h-2z" fill="#7c2b1c" opacity=".1"/><path d="m102.03 201.84h2v.87h-2z" fill="#d2b5a8"/><path d="m136.17 191.79a4.83 4.83 0 0 1 4.83 4.83v16.91h-9.66v-16.91a4.83 4.83 0 0 1 4.83-4.83z" fill="#7c2b1c"/><path d="m144.5 197.62h-1v-1a7.32 7.32 0 0 0 -12.79-4.88l-.37.42-.37-.42a7.32 7.32 0 0 0 -12.78 4.88v1h-1v-1a8.31 8.31 0 0 1 14.15-5.93 8.32 8.32 0 0 1 14.16 5.93z" fill="#f7ded0"/><path d="m124.51 191.79a4.83 4.83 0 0 1 4.83 4.83v16.91h-9.65v-16.91a4.82 4.82 0 0 1 4.82-4.83z" fill="#7c2b1c"/><path d="m124.51 191.79a4.83 4.83 0 0 1 4.83 4.83v1.38a4.83 4.83 0 1 0 -9.65 0v-1.41a4.82 4.82 0 0 1 4.82-4.8z" fill="#5d1d18"/><path d="m136.17 191.79a4.83 4.83 0 0 1 4.83 4.83v1.38a4.83 4.83 0 1 0 -9.66 0v-1.41a4.83 4.83 0 0 1 4.83-4.8z" fill="#5d1d18"/><path d="m128.84 201.84h3v-2.63h-3z" fill="#ba4127"/><path d="m129.34 213.53h2v-11.69h-2z" fill="#f4e9d2"/><path d="m129.34 198.34h2v.87h-2z" fill="#7c2b1c" opacity=".1"/><path d="m129.34 201.84h2v.87h-2z" fill="#d2b5a8"/><path d="m163.48 191.79a4.83 4.83 0 0 1 4.83 4.83v16.91h-9.66v-16.91a4.83 4.83 0 0 1 4.83-4.83z" fill="#7c2b1c"/><path d="m171.81 197.62h-1v-1a7.32 7.32 0 0 0 -12.81-4.88l-.37.42-.37-.42a7.32 7.32 0 0 0 -12.78 4.88v1h-1v-1a8.31 8.31 0 0 1 14.15-5.93 8.32 8.32 0 0 1 14.16 5.93z" fill="#f7ded0"/><path d="m151.82 191.79a4.83 4.83 0 0 1 4.83 4.83v16.91h-9.65v-16.91a4.82 4.82 0 0 1 4.82-4.83z" fill="#7c2b1c"/><path d="m151.82 191.79a4.83 4.83 0 0 1 4.83 4.83v1.38a4.83 4.83 0 1 0 -9.65 0v-1.41a4.82 4.82 0 0 1 4.82-4.8z" fill="#5d1d18"/><path d="m163.48 191.79a4.83 4.83 0 0 1 4.83 4.83v1.38a4.83 4.83 0 1 0 -9.66 0v-1.41a4.83 4.83 0 0 1 4.83-4.8z" fill="#5d1d18"/><path d="m156.15 201.84h3v-2.63h-3z" fill="#ba4127"/><path d="m156.65 213.53h2v-11.69h-2z" fill="#f4e9d2"/><path d="m156.65 198.34h2v.87h-2z" fill="#7c2b1c" opacity=".1"/><path d="m156.65 201.84h2v.87h-2z" fill="#d2b5a8"/><path d="m190.79 191.79a4.83 4.83 0 0 1 4.83 4.83v16.91h-9.62v-16.91a4.83 4.83 0 0 1 4.79-4.83z" fill="#7c2b1c"/><path d="m199.12 197.62h-1v-1a7.32 7.32 0 0 0 -12.79-4.88l-.37.42-.37-.42a7.32 7.32 0 0 0 -12.78 4.88v1h-1v-1a8.31 8.31 0 0 1 14.19-5.93 8.32 8.32 0 0 1 14.16 5.93z" fill="#f7ded0"/><path d="m179.13 191.79a4.83 4.83 0 0 1 4.83 4.83v16.91h-9.65v-16.91a4.82 4.82 0 0 1 4.82-4.83z" fill="#7c2b1c"/><path d="m179.13 191.79a4.83 4.83 0 0 1 4.83 4.83v1.38a4.83 4.83 0 1 0 -9.65 0v-1.41a4.82 4.82 0 0 1 4.82-4.8z" fill="#5d1d18"/><path d="m190.79 191.79a4.83 4.83 0 0 1 4.83 4.83v1.38a4.83 4.83 0 0 0 -9.66 0v-1.41a4.83 4.83 0 0 1 4.83-4.8z" fill="#5d1d18"/><path d="m183.46 201.84h3v-2.63h-3z" fill="#ba4127"/><path d="m183.96 213.53h2v-11.69h-2z" fill="#f4e9d2"/><path d="m183.96 198.34h2v.87h-2z" fill="#7c2b1c" opacity=".1"/><path d="m183.96 201.84h2v.87h-2z" fill="#d2b5a8"/><path d="m58.06 183.74h-.75v-2.49a1.13 1.13 0 1 0 -2.25 0v2.49h-.75v-2.49a1.88 1.88 0 1 1 3.75 0z" fill="#fcf2e4"/><path d="m61.06 183.74h-.75v-2.49a1.13 1.13 0 1 0 -2.25 0v2.49h-.75v-2.49a1.88 1.88 0 1 1 3.75 0z" fill="#fcf2e4"/><path d="m64.06 183.74h-.75v-2.49a1.13 1.13 0 1 0 -2.25 0v2.49h-.75v-2.49a1.88 1.88 0 1 1 3.75 0z" fill="#fcf2e4"/><path d="m67.06 183.74h-.75v-2.49a1.13 1.13 0 1 0 -2.25 0v2.49h-.75v-2.49a1.88 1.88 0 1 1 3.75 0z" fill="#fcf2e4"/><path d="m70.06 183.74h-.75v-2.49a1.13 1.13 0 1 0 -2.25 0v2.49h-.75v-2.49a1.88 1.88 0 1 1 3.75 0z" fill="#fcf2e4"/><path d="m73.06 183.74h-.75v-2.49a1.13 1.13 0 1 0 -2.25 0v2.49h-.75v-2.49a1.88 1.88 0 1 1 3.75 0z" fill="#fcf2e4"/><path d="m76.06 183.74h-.75v-2.49a1.13 1.13 0 1 0 -2.25 0v2.49h-.75v-2.49a1.88 1.88 0 1 1 3.75 0z" fill="#fcf2e4"/><path d="m79.06 183.74h-.75v-2.49a1.13 1.13 0 1 0 -2.25 0v2.49h-.75v-2.49a1.88 1.88 0 1 1 3.75 0z" fill="#fcf2e4"/><path d="m82.06 183.74h-.75v-2.49a1.13 1.13 0 1 0 -2.25 0v2.49h-.75v-2.49a1.88 1.88 0 1 1 3.75 0z" fill="#fcf2e4"/><path d="m85.06 183.74h-.75v-2.49a1.13 1.13 0 1 0 -2.25 0v2.49h-.75v-2.49a1.88 1.88 0 1 1 3.75 0z" fill="#fcf2e4"/><path d="m88.06 183.74h-.75v-2.49a1.13 1.13 0 1 0 -2.25 0v2.49h-.75v-2.49a1.88 1.88 0 1 1 3.75 0z" fill="#fcf2e4"/><path d="m91.06 183.74h-.75v-2.49a1.13 1.13 0 1 0 -2.25 0v2.49h-.75v-2.49a1.88 1.88 0 1 1 3.75 0z" fill="#fcf2e4"/><path d="m94.06 183.74h-.75v-2.49a1.13 1.13 0 1 0 -2.25 0v2.49h-.75v-2.49a1.88 1.88 0 1 1 3.75 0z" fill="#fcf2e4"/><path d="m97.06 183.74h-.75v-2.49a1.13 1.13 0 1 0 -2.25 0v2.49h-.75v-2.49a1.88 1.88 0 1 1 3.75 0z" fill="#fcf2e4"/><path d="m100.06 183.74h-.75v-2.49a1.13 1.13 0 1 0 -2.25 0v2.49h-.75v-2.49a1.88 1.88 0 1 1 3.75 0z" fill="#fcf2e4"/><path d="m103.06 183.74h-.75v-2.49a1.13 1.13 0 1 0 -2.25 0v2.49h-.75v-2.49a1.88 1.88 0 1 1 3.75 0z" fill="#fcf2e4"/><path d="m106.06 183.74h-.75v-2.49a1.13 1.13 0 1 0 -2.25 0v2.49h-.75v-2.49a1.88 1.88 0 1 1 3.75 0z" fill="#fcf2e4"/><path d="m109.06 183.74h-.75v-2.49a1.13 1.13 0 1 0 -2.25 0v2.49h-.75v-2.49a1.88 1.88 0 1 1 3.75 0z" fill="#fcf2e4"/><path d="m112.06 183.74h-.75v-2.49a1.13 1.13 0 1 0 -2.25 0v2.49h-.75v-2.49a1.88 1.88 0 1 1 3.75 0z" fill="#fcf2e4"/><path d="m115.06 183.74h-.75v-2.49a1.13 1.13 0 1 0 -2.25 0v2.49h-.75v-2.49a1.88 1.88 0 1 1 3.75 0z" fill="#fcf2e4"/><path d="m118.06 183.74h-.75v-2.49a1.13 1.13 0 1 0 -2.25 0v2.49h-.75v-2.49a1.88 1.88 0 1 1 3.75 0z" fill="#fcf2e4"/><path d="m121.06 183.74h-.75v-2.49a1.13 1.13 0 1 0 -2.25 0v2.49h-.75v-2.49a1.88 1.88 0 1 1 3.75 0z" fill="#fcf2e4"/><path d="m124.06 183.74h-.75v-2.49a1.13 1.13 0 1 0 -2.25 0v2.49h-.75v-2.49a1.88 1.88 0 1 1 3.75 0z" fill="#fcf2e4"/><path d="m127.06 183.74h-.75v-2.49a1.13 1.13 0 1 0 -2.25 0v2.49h-.75v-2.49a1.88 1.88 0 1 1 3.75 0z" fill="#fcf2e4"/><path d="m130.06 183.74h-.75v-2.49a1.13 1.13 0 1 0 -2.25 0v2.49h-.75v-2.49a1.88 1.88 0 1 1 3.75 0z" fill="#fcf2e4"/><path d="m133.06 183.74h-.75v-2.49a1.13 1.13 0 1 0 -2.25 0v2.49h-.75v-2.49a1.88 1.88 0 1 1 3.75 0z" fill="#fcf2e4"/><path d="m136.06 183.74h-.75v-2.49a1.13 1.13 0 1 0 -2.25 0v2.49h-.75v-2.49a1.88 1.88 0 1 1 3.75 0z" fill="#fcf2e4"/><path d="m139.06 183.74h-.75v-2.49a1.13 1.13 0 1 0 -2.25 0v2.49h-.75v-2.49a1.88 1.88 0 1 1 3.75 0z" fill="#fcf2e4"/><path d="m142.06 183.74h-.75v-2.49a1.13 1.13 0 1 0 -2.25 0v2.49h-.75v-2.49a1.88 1.88 0 1 1 3.75 0z" fill="#fcf2e4"/><path d="m145.06 183.74h-.75v-2.49a1.13 1.13 0 1 0 -2.25 0v2.49h-.75v-2.49a1.88 1.88 0 1 1 3.75 0z" fill="#fcf2e4"/><path d="m148.06 183.74h-.75v-2.49a1.13 1.13 0 1 0 -2.25 0v2.49h-.75v-2.49a1.88 1.88 0 1 1 3.75 0z" fill="#fcf2e4"/><path d="m151.06 183.74h-.75v-2.49a1.13 1.13 0 1 0 -2.25 0v2.49h-.75v-2.49a1.88 1.88 0 1 1 3.75 0z" fill="#fcf2e4"/><path d="m154.06 183.74h-.75v-2.49a1.13 1.13 0 1 0 -2.25 0v2.49h-.75v-2.49a1.88 1.88 0 1 1 3.75 0z" fill="#fcf2e4"/><path d="m157.06 183.74h-.75v-2.49a1.13 1.13 0 1 0 -2.25 0v2.49h-.75v-2.49a1.88 1.88 0 1 1 3.75 0z" fill="#fcf2e4"/><path d="m160.06 183.74h-.75v-2.49a1.13 1.13 0 1 0 -2.25 0v2.49h-.75v-2.49a1.88 1.88 0 1 1 3.75 0z" fill="#fcf2e4"/><path d="m163.06 183.74h-.75v-2.49a1.13 1.13 0 1 0 -2.25 0v2.49h-.75v-2.49a1.88 1.88 0 1 1 3.75 0z" fill="#fcf2e4"/><path d="m166.06 183.74h-.75v-2.49a1.13 1.13 0 1 0 -2.25 0v2.49h-.75v-2.49a1.88 1.88 0 1 1 3.75 0z" fill="#fcf2e4"/><path d="m169.06 183.74h-.75v-2.49a1.13 1.13 0 1 0 -2.25 0v2.49h-.75v-2.49a1.88 1.88 0 1 1 3.75 0z" fill="#fcf2e4"/><path d="m172.06 183.74h-.75v-2.49a1.13 1.13 0 1 0 -2.25 0v2.49h-.75v-2.49a1.88 1.88 0 1 1 3.75 0z" fill="#fcf2e4"/><path d="m175.06 183.74h-.75v-2.49a1.13 1.13 0 1 0 -2.25 0v2.49h-.75v-2.49a1.88 1.88 0 1 1 3.75 0z" fill="#fcf2e4"/><path d="m178.06 183.74h-.75v-2.49a1.13 1.13 0 1 0 -2.25 0v2.49h-.75v-2.49a1.88 1.88 0 1 1 3.75 0z" fill="#fcf2e4"/><path d="m181.06 183.74h-.75v-2.49a1.13 1.13 0 1 0 -2.25 0v2.49h-.75v-2.49a1.88 1.88 0 1 1 3.75 0z" fill="#fcf2e4"/><path d="m184.06 183.74h-.75v-2.49a1.13 1.13 0 1 0 -2.25 0v2.49h-.75v-2.49a1.88 1.88 0 1 1 3.75 0z" fill="#fcf2e4"/><path d="m187.06 183.74h-.75v-2.49a1.13 1.13 0 1 0 -2.25 0v2.49h-.75v-2.49a1.88 1.88 0 1 1 3.75 0z" fill="#fcf2e4"/><path d="m190.06 183.74h-.75v-2.49a1.13 1.13 0 1 0 -2.25 0v2.49h-.75v-2.49a1.88 1.88 0 1 1 3.75 0z" fill="#fcf2e4"/><path d="m193.06 183.74h-.75v-2.49a1.13 1.13 0 1 0 -2.25 0v2.49h-.75v-2.49a1.88 1.88 0 1 1 3.75 0z" fill="#fcf2e4"/><path d="m196.06 183.74h-.75v-2.49a1.13 1.13 0 1 0 -2.25 0v2.49h-.75v-2.49a1.88 1.88 0 1 1 3.75 0z" fill="#fcf2e4"/><path d="m199.06 183.74h-.75v-2.49a1.13 1.13 0 1 0 -2.25 0v2.49h-.75v-2.49a1.88 1.88 0 1 1 3.75 0z" fill="#fcf2e4"/><path d="m52.31 176.43h147.85v-3.67h-147.85z" fill="#7c2b1c" opacity=".5"/><path d="m76.72 236.74h9.66v-9.65h-9.66z" fill="#7c2b1c"/><path d="m65.07 236.74h9.65v-9.65h-9.65z" fill="#7c2b1c"/><path d="m104.03 236.74h9.66v-9.65h-9.66z" fill="#7c2b1c"/><path d="m92.38 236.74h9.65v-9.65h-9.65z" fill="#7c2b1c"/><path d="m131.34 236.74h9.66v-9.65h-9.66z" fill="#7c2b1c"/><path d="m119.69 236.74h9.65v-9.65h-9.65z" fill="#7c2b1c"/><path d="m158.65 236.74h9.66v-9.65h-9.66z" fill="#7c2b1c"/><path d="m147 236.74h9.65v-9.65h-9.65z" fill="#7c2b1c"/><path d="m185.96 236.74h9.66v-9.65h-9.66z" fill="#7c2b1c"/><path d="m174.31 236.74h9.65v-9.65h-9.65z" fill="#7c2b1c"/><path d="m76.72 236.74h9.66v-1.4h-9.66z" fill="#d04c31"/><path d="m65.07 236.74h9.65v-1.4h-9.65z" fill="#d04c31"/><path d="m104.03 236.74h9.66v-1.4h-9.66z" fill="#d04c31"/><path d="m92.38 236.74h9.65v-1.4h-9.65z" fill="#d04c31"/><path d="m131.34 236.74h9.66v-1.4h-9.66z" fill="#d04c31"/><path d="m119.69 236.74h9.65v-1.4h-9.65z" fill="#d04c31"/><path d="m158.65 236.74h9.66v-1.4h-9.66z" fill="#d04c31"/><path d="m147 236.74h9.65v-1.4h-9.65z" fill="#d04c31"/><path d="m185.96 236.74h9.66v-1.4h-9.66z" fill="#d04c31"/><path d="m174.31 236.74h9.65v-1.4h-9.65z" fill="#d04c31"/><path d="m76.72 213.53h9.66v-1.4h-9.66z" fill="#d04c31"/><path d="m65.07 213.53h9.65v-1.4h-9.65z" fill="#d04c31"/><path d="m104.03 213.53h9.66v-1.4h-9.66z" fill="#d04c31"/><path d="m92.38 213.53h9.65v-1.4h-9.65z" fill="#d04c31"/><path d="m131.34 213.53h9.66v-1.4h-9.66z" fill="#d04c31"/><path d="m119.69 213.53h9.65v-1.4h-9.65z" fill="#d04c31"/><path d="m158.65 213.53h9.66v-1.4h-9.66z" fill="#d04c31"/><path d="m147 213.53h9.65v-1.4h-9.65z" fill="#d04c31"/><path d="m185.96 213.53h9.66v-1.4h-9.66z" fill="#d04c31"/><path d="m174.31 213.53h9.65v-1.4h-9.65z" fill="#d04c31"/><path d="m65.07 260.08h21.31v-8.34a10.66 10.66 0 0 0 -10.66-10.66 10.66 10.66 0 0 0 -10.65 10.66z" fill="#7c2b1c"/><path d="m92.38 260.08h21.31v-8.34a10.66 10.66 0 0 0 -10.69-10.66 10.66 10.66 0 0 0 -10.65 10.66z" fill="#7c2b1c"/><path d="m119.69 260.08h21.31v-8.34a10.66 10.66 0 0 0 -10.66-10.66 10.66 10.66 0 0 0 -10.65 10.66z" fill="#7c2b1c"/><path d="m147 260.08h21.31v-8.34a10.66 10.66 0 0 0 -10.66-10.66 10.66 10.66 0 0 0 -10.65 10.66z" fill="#7c2b1c"/><path d="m174.31 260.08h21.31v-8.34a10.66 10.66 0 0 0 -10.62-10.66 10.66 10.66 0 0 0 -10.65 10.66z" fill="#7c2b1c"/><path d="m75.72 241.08a10.66 10.66 0 0 1 10.66 10.66v2a10.66 10.66 0 0 0 -10.66-10.66 10.66 10.66 0 0 0 -10.65 10.66v-2a10.66 10.66 0 0 1 10.65-10.66z" fill="#5d1d18"/><path d="m103 241.08a10.66 10.66 0 0 1 10.66 10.66v2a10.66 10.66 0 0 0 -10.66-10.66 10.66 10.66 0 0 0 -10.65 10.66v-2a10.66 10.66 0 0 1 10.65-10.66z" fill="#5d1d18"/><path d="m130.34 241.08a10.66 10.66 0 0 1 10.66 10.66v2a10.66 10.66 0 0 0 -10.66-10.66 10.66 10.66 0 0 0 -10.65 10.66v-2a10.66 10.66 0 0 1 10.65-10.66z" fill="#5d1d18"/><path d="m157.65 241.08a10.66 10.66 0 0 1 10.66 10.66v2a10.66 10.66 0 0 0 -10.66-10.66 10.66 10.66 0 0 0 -10.65 10.66v-2a10.66 10.66 0 0 1 10.65-10.66z" fill="#5d1d18"/><path d="m185 241.08a10.66 10.66 0 0 1 10.66 10.66v2a10.66 10.66 0 0 0 -10.66-10.66 10.66 10.66 0 0 0 -10.65 10.66v-2a10.66 10.66 0 0 1 10.65-10.66z" fill="#5d1d18"/><path d="m.5 260.08h51.81v-114.53h-51.81z" fill="#ba4127"/><path d="m.5 216.25h254.91v2h-254.91z" fill="#f7ded0"/><path d="m.5 221.75h254.91v2h-254.91z" fill="#f7ded0"/><path d="m11.9 224.83h29v-38.9a14.5 14.5 0 0 0 -14.5-14.5 14.5 14.5 0 0 0 -14.5 14.5z" fill="#ba4127"/><path d="m40.9 224.83h-29v-38.9a14.5 14.5 0 0 1 29 0zm-27-2h25v-36.9a12.5 12.5 0 0 0 -25 0z" fill="#f7ded0"/><path d="m17.5 108.58h17.81l17 36.97h-51.81z" fill="#f4e9d2"/><path d="m17.5 108.58h17.81l17 36.97h-51.81z" fill="#f4e9d2"/><path d="m48.63 145.87-17-36.97 1.36-.63 17 36.97z" fill="#e6dac0"/><path d="m4.18 145.87-1.36-.63 17-36.97 1.36.63z" fill="#e6dac0"/><path d="m9.9 130.43h33v1.5h-33z" fill="#e6dac0"/><path d="m34.4 145.55-8-17.42-8 17.42z" fill="#ba4127"/><path d="m52.81 154.47h-1v-2.32a3 3 0 0 0 -6 0v2.32h-1v-2.32a4 4 0 0 1 8 0z" fill="#fcf2e4"/><path d="m45.79 154.47h-1v-2.32a3 3 0 1 0 -6 0v2.32h-1v-2.32a4 4 0 1 1 8 0z" fill="#fcf2e4"/><path d="m15 154.47h-1v-2.32a3 3 0 1 0 -6 0v2.32h-1v-2.32a4 4 0 1 1 8 0z" fill="#fcf2e4"/><path d="m8 154.47h-1v-2.32a3 3 0 1 0 -6 0v2.32h-1v-2.32a4 4 0 1 1 8 0z" fill="#fcf2e4"/><path d="m33.73 149.55h-1v-1.91a6.33 6.33 0 1 0 -12.65 0v1.91h-1v-1.91a7.33 7.33 0 1 1 14.65 0z" fill="#fcf2e4"/><path d="m26.4 142.81a4.83 4.83 0 0 1 4.83 4.83v11.91h-9.65v-11.91a4.82 4.82 0 0 1 4.82-4.83z" fill="#7c2b1c"/><path d="m26.4 142.81a4.83 4.83 0 0 1 4.83 4.83v1.41a4.83 4.83 0 0 0 -9.65 0v-1.41a4.82 4.82 0 0 1 4.82-4.83z" fill="#5d1d18"/><path d="m31.24 185.93h9.67v38.9h-9.67z" fill="#7c2b1c"/><path d="m21.57 185.93h9.67v38.9h-9.67z" fill="#7c2b1c"/><path d="m11.9 185.93h9.67v38.9h-9.67z" fill="#7c2b1c"/><path d="m11.9 223.17h29v1.67h-29z" fill="#d04c31"/><path d="m30.74 188.93h1v23.65h-1z" fill="#f7ded0"/><path d="m30.24 212.58h2v10.58h-2z" fill="#f7ded0"/><path d="m21.07 188.93h1v23.65h-1z" fill="#f7ded0"/><path d="m20.57 212.58h2v10.58h-2z" fill="#f7ded0"/><path d="m29.24 185.93h4v5h-4z" fill="#f7ded0"/><path d="m19.57 185.93h4v5h-4z" fill="#f7ded0"/><path d="m11.9 187.43h29v-1.5h-29z" fill="#f4e9d2"/><path d="m15.75 260.08h21.31v-13.34a10.66 10.66 0 0 0 -10.66-10.66 10.66 10.66 0 0 0 -10.65 10.66z" fill="#7c2b1c"/><path d="m26.4 236.08a10.66 10.66 0 0 1 10.66 10.66v2a10.66 10.66 0 1 0 -21.31 0v-2a10.66 10.66 0 0 1 10.65-10.66z" fill="#5d1d18"/><path d="m11.9 194.46h29v1h-29z" fill="#f7ded0"/><path d="m16.4 106.73h20v1.86h-20z" fill="#e6dac0"/><path d="m19.9 106.92h13v-8.23h-13z" fill="#e6dac0"/><path d="m20.79 99.56h.75v6.56h-.75z" fill="#9fd1d3"/><path d="m22.29 99.56h.75v6.56h-.75z" fill="#9fd1d3"/><path d="m23.79 99.56h.75v6.56h-.75z" fill="#9fd1d3"/><path d="m25.29 99.56h.75v6.56h-.75z" fill="#9fd1d3"/><path d="m26.79 99.56h.75v6.56h-.75z" fill="#9fd1d3"/><path d="m28.29 99.56h.75v6.56h-.75z" fill="#9fd1d3"/><path d="m29.79 99.56h.75v6.56h-.75z" fill="#9fd1d3"/><path d="m31.29 99.56h.75v6.56h-.75z" fill="#9fd1d3"/><path d="m32.02 93.38h.88v5.31h-.88z" fill="#e6dac0"/><path d="m19.9 93.38h.89v5.31h-.89z" fill="#e6dac0"/><path d="m52.31 146.55h-18.55l-7.36-16.02-7.35 16.02h-18.55v-2h17.26l8.64-18.82 8.65 18.82h17.26z" fill="#fcf2e4"/><path d="m16.4 116.74h20v1.5h-20z" fill="#e6dac0"/><path d="m52.31 170.79h147.85v1.97h-147.85z" fill="#f4e9d2"/><path d="m255.41 172.76h151.29v87.32h-151.29z" fill="#ba4127"/><path d="m255.41 145.55h154.29v27.21h-154.29z" fill="#ebdabe"/><path d="m255.41 142.12h154.29v3.43h-154.29z" fill="#f4e9d2"/><path d="m255.41 142.12h3.43v30.65h-3.43z" fill="#7c2b1c" opacity=".1"/><path d="m255.41 172.76h3.43v87.32h-3.43z" fill="#7c2b1c" opacity=".5"/><path d="m403.27 176.43h3.43v83.65h-3.43z" fill="#7c2b1c" opacity=".5"/><path d="m377.46 191.79a4.83 4.83 0 0 0 -4.83 4.83v16.91h9.66v-16.91a4.83 4.83 0 0 0 -4.83-4.83z" fill="#7c2b1c"/><path d="m397.44 197.62h-1v-1a7.32 7.32 0 0 0 -12.78-4.88l-.37.42-.38-.42a7.32 7.32 0 0 0 -12.78 4.88v1h-1v-1a8.32 8.32 0 0 1 14.16-5.93 8.31 8.31 0 0 1 14.15 5.93z" fill="#f7ded0"/><path d="m389.11 191.79a4.82 4.82 0 0 0 -4.82 4.83v16.91h9.65v-16.91a4.83 4.83 0 0 0 -4.83-4.83z" fill="#7c2b1c"/><path d="m389.11 191.79a4.82 4.82 0 0 0 -4.82 4.83v1.38a4.83 4.83 0 1 1 9.65 0v-1.41a4.83 4.83 0 0 0 -4.83-4.8z" fill="#5d1d18"/><path d="m377.46 191.79a4.83 4.83 0 0 0 -4.83 4.83v1.38a4.83 4.83 0 0 1 9.66 0v-1.41a4.83 4.83 0 0 0 -4.83-4.8z" fill="#5d1d18"/><path d="m381.79 199.21h3v2.63h-3z" fill="#ba4127"/><path d="m382.29 201.83h2v11.69h-2z" fill="#f4e9d2"/><path d="m382.29 198.33h2v.88h-2z" fill="#7c2b1c" opacity=".1"/><path d="m382.29 201.83h2v.88h-2z" fill="#d2b5a8"/><path d="m350.15 191.79a4.83 4.83 0 0 0 -4.83 4.83v16.91h9.68v-16.91a4.83 4.83 0 0 0 -4.85-4.83z" fill="#7c2b1c"/><path d="m370.13 197.62h-1v-1a7.32 7.32 0 0 0 -12.78-4.88l-.37.42-.38-.42a7.32 7.32 0 0 0 -12.78 4.88v1h-1v-1a8.32 8.32 0 0 1 14.18-5.93 8.31 8.31 0 0 1 14.15 5.93z" fill="#f7ded0"/><path d="m361.8 191.79a4.82 4.82 0 0 0 -4.82 4.83v16.91h9.65v-16.91a4.83 4.83 0 0 0 -4.83-4.83z" fill="#7c2b1c"/><path d="m361.8 191.79a4.82 4.82 0 0 0 -4.82 4.83v1.38a4.83 4.83 0 1 1 9.65 0v-1.41a4.83 4.83 0 0 0 -4.83-4.8z" fill="#5d1d18"/><path d="m350.15 191.79a4.83 4.83 0 0 0 -4.83 4.83v1.38a4.83 4.83 0 0 1 9.66 0v-1.41a4.83 4.83 0 0 0 -4.83-4.8z" fill="#5d1d18"/><path d="m354.48 199.21h3v2.63h-3z" fill="#ba4127"/><path d="m354.98 201.83h2v11.69h-2z" fill="#f4e9d2"/><path d="m354.98 198.33h2v.88h-2z" fill="#7c2b1c" opacity=".1"/><path d="m354.98 201.83h2v.88h-2z" fill="#d2b5a8"/><path d="m322.84 191.79a4.83 4.83 0 0 0 -4.83 4.83v16.91h9.66v-16.91a4.83 4.83 0 0 0 -4.83-4.83z" fill="#7c2b1c"/><path d="m342.82 197.62h-1v-1a7.32 7.32 0 0 0 -12.82-4.88l-.37.42-.38-.42a7.32 7.32 0 0 0 -12.78 4.88v1h-1v-1a8.32 8.32 0 0 1 14.16-5.93 8.31 8.31 0 0 1 14.15 5.93z" fill="#f7ded0"/><path d="m334.49 191.79a4.82 4.82 0 0 0 -4.82 4.83v16.91h9.65v-16.91a4.83 4.83 0 0 0 -4.83-4.83z" fill="#7c2b1c"/><path d="m334.49 191.79a4.82 4.82 0 0 0 -4.82 4.83v1.38a4.83 4.83 0 1 1 9.65 0v-1.41a4.83 4.83 0 0 0 -4.83-4.8z" fill="#5d1d18"/><path d="m322.84 191.79a4.83 4.83 0 0 0 -4.83 4.83v1.38a4.83 4.83 0 0 1 9.66 0v-1.41a4.83 4.83 0 0 0 -4.83-4.8z" fill="#5d1d18"/><path d="m327.17 199.21h3v2.63h-3z" fill="#ba4127"/><path d="m327.67 201.83h2v11.69h-2z" fill="#f4e9d2"/><path d="m327.67 198.33h2v.88h-2z" fill="#7c2b1c" opacity=".1"/><path d="m327.67 201.83h2v.88h-2z" fill="#d2b5a8"/><path d="m295.53 191.79a4.83 4.83 0 0 0 -4.83 4.83v16.91h9.66v-16.91a4.83 4.83 0 0 0 -4.83-4.83z" fill="#7c2b1c"/><path d="m315.51 197.62h-1v-1a7.32 7.32 0 0 0 -12.78-4.88l-.37.42-.38-.42a7.32 7.32 0 0 0 -12.78 4.88v1h-1v-1a8.32 8.32 0 0 1 14.16-5.93 8.31 8.31 0 0 1 14.15 5.93z" fill="#f7ded0"/><path d="m307.18 191.79a4.82 4.82 0 0 0 -4.82 4.83v16.91h9.64v-16.91a4.83 4.83 0 0 0 -4.82-4.83z" fill="#7c2b1c"/><path d="m307.18 191.79a4.82 4.82 0 0 0 -4.82 4.83v1.38a4.83 4.83 0 1 1 9.65 0v-1.41a4.83 4.83 0 0 0 -4.83-4.8z" fill="#5d1d18"/><path d="m295.53 191.79a4.83 4.83 0 0 0 -4.83 4.83v1.38a4.83 4.83 0 0 1 9.66 0v-1.41a4.83 4.83 0 0 0 -4.83-4.8z" fill="#5d1d18"/><path d="m299.86 199.21h3v2.63h-3z" fill="#ba4127"/><path d="m300.36 201.83h2v11.69h-2z" fill="#f4e9d2"/><path d="m300.36 198.33h2v.88h-2z" fill="#7c2b1c" opacity=".1"/><path d="m300.36 201.83h2v.88h-2z" fill="#d2b5a8"/><path d="m268.22 191.79a4.83 4.83 0 0 0 -4.83 4.83v16.91h9.66v-16.91a4.83 4.83 0 0 0 -4.83-4.83z" fill="#7c2b1c"/><path d="m288.2 197.62h-1v-1a7.32 7.32 0 0 0 -12.78-4.88l-.37.42-.38-.42a7.32 7.32 0 0 0 -12.78 4.88v1h-1v-1a8.32 8.32 0 0 1 14.16-5.93 8.31 8.31 0 0 1 14.15 5.93z" fill="#f7ded0"/><path d="m279.87 191.79a4.82 4.82 0 0 0 -4.82 4.83v16.91h9.65v-16.91a4.83 4.83 0 0 0 -4.83-4.83z" fill="#7c2b1c"/><path d="m279.87 191.79a4.82 4.82 0 0 0 -4.82 4.83v1.38a4.83 4.83 0 1 1 9.65 0v-1.41a4.83 4.83 0 0 0 -4.83-4.8z" fill="#5d1d18"/><path d="m268.22 191.79a4.83 4.83 0 0 0 -4.83 4.83v1.38a4.83 4.83 0 1 1 9.66 0v-1.41a4.83 4.83 0 0 0 -4.83-4.8z" fill="#5d1d18"/><path d="m272.55 199.21h3v2.63h-3z" fill="#ba4127"/><path d="m273.05 201.83h2v11.69h-2z" fill="#f4e9d2"/><path d="m273.05 198.33h2v.88h-2z" fill="#7c2b1c" opacity=".1"/><path d="m273.05 201.83h2v.88h-2z" fill="#d2b5a8"/><path d="m404.7 183.74h-.7v-2.49a1.13 1.13 0 1 0 -2.25 0v2.49h-.75v-2.49a1.88 1.88 0 1 1 3.75 0z" fill="#fcf2e4"/><path d="m401.7 183.74h-.7v-2.49a1.13 1.13 0 1 0 -2.25 0v2.49h-.75v-2.49a1.88 1.88 0 1 1 3.75 0z" fill="#fcf2e4"/><path d="m398.7 183.74h-.7v-2.49a1.13 1.13 0 1 0 -2.25 0v2.49h-.75v-2.49a1.88 1.88 0 1 1 3.75 0z" fill="#fcf2e4"/><path d="m395.7 183.74h-.7v-2.49a1.13 1.13 0 1 0 -2.25 0v2.49h-.75v-2.49a1.88 1.88 0 1 1 3.75 0z" fill="#fcf2e4"/><path d="m392.7 183.74h-.7v-2.49a1.13 1.13 0 1 0 -2.25 0v2.49h-.75v-2.49a1.88 1.88 0 1 1 3.75 0z" fill="#fcf2e4"/><path d="m389.7 183.74h-.7v-2.49a1.13 1.13 0 1 0 -2.25 0v2.49h-.75v-2.49a1.88 1.88 0 1 1 3.75 0z" fill="#fcf2e4"/><path d="m386.7 183.74h-.7v-2.49a1.13 1.13 0 1 0 -2.25 0v2.49h-.75v-2.49a1.88 1.88 0 1 1 3.75 0z" fill="#fcf2e4"/><path d="m383.7 183.74h-.7v-2.49a1.13 1.13 0 1 0 -2.25 0v2.49h-.75v-2.49a1.88 1.88 0 1 1 3.75 0z" fill="#fcf2e4"/><path d="m380.7 183.74h-.7v-2.49a1.13 1.13 0 1 0 -2.25 0v2.49h-.75v-2.49a1.88 1.88 0 1 1 3.75 0z" fill="#fcf2e4"/><path d="m377.7 183.74h-.7v-2.49a1.13 1.13 0 1 0 -2.25 0v2.49h-.75v-2.49a1.88 1.88 0 1 1 3.75 0z" fill="#fcf2e4"/><path d="m374.7 183.74h-.7v-2.49a1.13 1.13 0 1 0 -2.25 0v2.49h-.75v-2.49a1.88 1.88 0 1 1 3.75 0z" fill="#fcf2e4"/><path d="m371.7 183.74h-.7v-2.49a1.13 1.13 0 1 0 -2.25 0v2.49h-.75v-2.49a1.88 1.88 0 1 1 3.75 0z" fill="#fcf2e4"/><path d="m368.7 183.74h-.7v-2.49a1.13 1.13 0 1 0 -2.25 0v2.49h-.75v-2.49a1.88 1.88 0 1 1 3.75 0z" fill="#fcf2e4"/><path d="m365.7 183.74h-.7v-2.49a1.13 1.13 0 1 0 -2.25 0v2.49h-.75v-2.49a1.88 1.88 0 1 1 3.75 0z" fill="#fcf2e4"/><path d="m362.7 183.74h-.7v-2.49a1.13 1.13 0 1 0 -2.25 0v2.49h-.75v-2.49a1.88 1.88 0 1 1 3.75 0z" fill="#fcf2e4"/><path d="m359.7 183.74h-.7v-2.49a1.13 1.13 0 1 0 -2.25 0v2.49h-.75v-2.49a1.88 1.88 0 1 1 3.75 0z" fill="#fcf2e4"/><path d="m356.7 183.74h-.7v-2.49a1.13 1.13 0 1 0 -2.25 0v2.49h-.75v-2.49a1.88 1.88 0 1 1 3.75 0z" fill="#fcf2e4"/><path d="m353.7 183.74h-.7v-2.49a1.13 1.13 0 1 0 -2.25 0v2.49h-.75v-2.49a1.88 1.88 0 1 1 3.75 0z" fill="#fcf2e4"/><path d="m350.7 183.74h-.7v-2.49a1.13 1.13 0 1 0 -2.25 0v2.49h-.75v-2.49a1.88 1.88 0 1 1 3.75 0z" fill="#fcf2e4"/><path d="m347.7 183.74h-.7v-2.49a1.13 1.13 0 1 0 -2.25 0v2.49h-.75v-2.49a1.88 1.88 0 1 1 3.75 0z" fill="#fcf2e4"/><path d="m344.7 183.74h-.7v-2.49a1.13 1.13 0 1 0 -2.25 0v2.49h-.75v-2.49a1.88 1.88 0 1 1 3.75 0z" fill="#fcf2e4"/><path d="m341.7 183.74h-.7v-2.49a1.13 1.13 0 1 0 -2.25 0v2.49h-.75v-2.49a1.88 1.88 0 1 1 3.75 0z" fill="#fcf2e4"/><path d="m338.7 183.74h-.7v-2.49a1.13 1.13 0 1 0 -2.25 0v2.49h-.75v-2.49a1.88 1.88 0 1 1 3.75 0z" fill="#fcf2e4"/><path d="m335.7 183.74h-.7v-2.49a1.13 1.13 0 1 0 -2.25 0v2.49h-.75v-2.49a1.88 1.88 0 1 1 3.75 0z" fill="#fcf2e4"/><path d="m332.7 183.74h-.7v-2.49a1.13 1.13 0 1 0 -2.25 0v2.49h-.75v-2.49a1.88 1.88 0 1 1 3.75 0z" fill="#fcf2e4"/><path d="m329.7 183.74h-.7v-2.49a1.13 1.13 0 1 0 -2.25 0v2.49h-.75v-2.49a1.88 1.88 0 1 1 3.75 0z" fill="#fcf2e4"/><path d="m326.7 183.74h-.7v-2.49a1.13 1.13 0 1 0 -2.25 0v2.49h-.75v-2.49a1.88 1.88 0 1 1 3.75 0z" fill="#fcf2e4"/><path d="m323.7 183.74h-.7v-2.49a1.13 1.13 0 1 0 -2.25 0v2.49h-.75v-2.49a1.88 1.88 0 1 1 3.75 0z" fill="#fcf2e4"/><path d="m320.7 183.74h-.7v-2.49a1.13 1.13 0 1 0 -2.25 0v2.49h-.75v-2.49a1.88 1.88 0 1 1 3.75 0z" fill="#fcf2e4"/><path d="m317.7 183.74h-.7v-2.49a1.13 1.13 0 1 0 -2.25 0v2.49h-.75v-2.49a1.88 1.88 0 1 1 3.75 0z" fill="#fcf2e4"/><path d="m314.7 183.74h-.7v-2.49a1.13 1.13 0 1 0 -2.25 0v2.49h-.75v-2.49a1.88 1.88 0 1 1 3.75 0z" fill="#fcf2e4"/><path d="m311.7 183.74h-.7v-2.49a1.13 1.13 0 1 0 -2.25 0v2.49h-.75v-2.49a1.88 1.88 0 1 1 3.75 0z" fill="#fcf2e4"/><path d="m308.7 183.74h-.7v-2.49a1.13 1.13 0 1 0 -2.25 0v2.49h-.75v-2.49a1.88 1.88 0 1 1 3.75 0z" fill="#fcf2e4"/><path d="m305.7 183.74h-.7v-2.49a1.13 1.13 0 1 0 -2.25 0v2.49h-.75v-2.49a1.88 1.88 0 1 1 3.75 0z" fill="#fcf2e4"/><path d="m302.7 183.74h-.7v-2.49a1.13 1.13 0 1 0 -2.25 0v2.49h-.75v-2.49a1.88 1.88 0 1 1 3.75 0z" fill="#fcf2e4"/><path d="m299.7 183.74h-.7v-2.49a1.13 1.13 0 1 0 -2.25 0v2.49h-.75v-2.49a1.88 1.88 0 1 1 3.75 0z" fill="#fcf2e4"/><path d="m296.7 183.74h-.7v-2.49a1.13 1.13 0 1 0 -2.25 0v2.49h-.75v-2.49a1.88 1.88 0 1 1 3.75 0z" fill="#fcf2e4"/><path d="m293.7 183.74h-.7v-2.49a1.13 1.13 0 1 0 -2.25 0v2.49h-.75v-2.49a1.88 1.88 0 1 1 3.75 0z" fill="#fcf2e4"/><path d="m290.7 183.74h-.7v-2.49a1.13 1.13 0 1 0 -2.25 0v2.49h-.75v-2.49a1.88 1.88 0 1 1 3.75 0z" fill="#fcf2e4"/><path d="m287.7 183.74h-.7v-2.49a1.13 1.13 0 1 0 -2.25 0v2.49h-.75v-2.49a1.88 1.88 0 1 1 3.75 0z" fill="#fcf2e4"/><path d="m284.7 183.74h-.7v-2.49a1.13 1.13 0 1 0 -2.25 0v2.49h-.75v-2.49a1.88 1.88 0 1 1 3.75 0z" fill="#fcf2e4"/><path d="m281.7 183.74h-.7v-2.49a1.13 1.13 0 1 0 -2.25 0v2.49h-.75v-2.49a1.88 1.88 0 1 1 3.75 0z" fill="#fcf2e4"/><path d="m278.7 183.74h-.7v-2.49a1.13 1.13 0 1 0 -2.25 0v2.49h-.75v-2.49a1.88 1.88 0 1 1 3.75 0z" fill="#fcf2e4"/><path d="m275.7 183.74h-.7v-2.49a1.13 1.13 0 1 0 -2.25 0v2.49h-.75v-2.49a1.88 1.88 0 1 1 3.75 0z" fill="#fcf2e4"/><path d="m272.7 183.74h-.7v-2.49a1.13 1.13 0 1 0 -2.25 0v2.49h-.75v-2.49a1.88 1.88 0 1 1 3.75 0z" fill="#fcf2e4"/><path d="m269.7 183.74h-.7v-2.49a1.13 1.13 0 1 0 -2.25 0v2.49h-.75v-2.49a1.88 1.88 0 1 1 3.75 0z" fill="#fcf2e4"/><path d="m266.7 183.74h-.7v-2.49a1.13 1.13 0 1 0 -2.25 0v2.49h-.75v-2.49a1.88 1.88 0 1 1 3.75 0z" fill="#fcf2e4"/><path d="m263.7 183.74h-.7v-2.49a1.13 1.13 0 1 0 -2.25 0v2.49h-.75v-2.49a1.88 1.88 0 1 1 3.75 0z" fill="#fcf2e4"/><path d="m258.84 172.76h147.86v3.67h-147.86z" fill="#7c2b1c" opacity=".5"/><path d="m372.63 227.08h9.65v9.65h-9.65z" fill="#7c2b1c"/><path d="m384.29 227.08h9.65v9.65h-9.65z" fill="#7c2b1c"/><path d="m345.32 227.08h9.65v9.65h-9.65z" fill="#7c2b1c"/><path d="m356.98 227.08h9.65v9.65h-9.65z" fill="#7c2b1c"/><path d="m318.01 227.08h9.65v9.65h-9.65z" fill="#7c2b1c"/><path d="m329.67 227.08h9.65v9.65h-9.65z" fill="#7c2b1c"/><path d="m290.7 227.08h9.66v9.65h-9.66z" fill="#7c2b1c"/><path d="m302.36 227.08h9.65v9.65h-9.65z" fill="#7c2b1c"/><path d="m263.39 227.08h9.65v9.65h-9.65z" fill="#7c2b1c"/><path d="m275.05 227.08h9.65v9.65h-9.65z" fill="#7c2b1c"/><path d="m372.63 235.33h9.65v1.4h-9.65z" fill="#d04c31"/><path d="m384.29 235.33h9.65v1.4h-9.65z" fill="#d04c31"/><path d="m345.32 235.33h9.65v1.4h-9.65z" fill="#d04c31"/><path d="m356.98 235.33h9.65v1.4h-9.65z" fill="#d04c31"/><path d="m318.01 235.33h9.65v1.4h-9.65z" fill="#d04c31"/><path d="m329.67 235.33h9.65v1.4h-9.65z" fill="#d04c31"/><path d="m290.7 235.33h9.66v1.4h-9.66z" fill="#d04c31"/><path d="m302.36 235.33h9.65v1.4h-9.65z" fill="#d04c31"/><path d="m263.39 235.33h9.65v1.4h-9.65z" fill="#d04c31"/><path d="m275.05 235.33h9.65v1.4h-9.65z" fill="#d04c31"/><path d="m372.63 212.12h9.65v1.4h-9.65z" fill="#d04c31"/><path d="m384.29 212.12h9.65v1.4h-9.65z" fill="#d04c31"/><path d="m345.32 212.12h9.65v1.4h-9.65z" fill="#d04c31"/><path d="m356.98 212.12h9.65v1.4h-9.65z" fill="#d04c31"/><path d="m318.01 212.12h9.65v1.4h-9.65z" fill="#d04c31"/><path d="m329.67 212.12h9.65v1.4h-9.65z" fill="#d04c31"/><path d="m290.7 212.12h9.66v1.4h-9.66z" fill="#d04c31"/><path d="m302.36 212.12h9.65v1.4h-9.65z" fill="#d04c31"/><path d="m263.39 212.12h9.65v1.4h-9.65z" fill="#d04c31"/><path d="m275.05 212.12h9.65v1.4h-9.65z" fill="#d04c31"/><path d="m393.94 260.08h-21.31v-8.34a10.66 10.66 0 0 1 10.66-10.66 10.66 10.66 0 0 1 10.65 10.66z" fill="#7c2b1c"/><path d="m366.63 260.08h-21.31v-8.34a10.66 10.66 0 0 1 10.68-10.66 10.66 10.66 0 0 1 10.65 10.66z" fill="#7c2b1c"/><path d="m339.32 260.08h-21.32v-8.34a10.66 10.66 0 0 1 10.66-10.66 10.66 10.66 0 0 1 10.65 10.66z" fill="#7c2b1c"/><path d="m312 260.08h-21.3v-8.34a10.66 10.66 0 0 1 10.66-10.66 10.66 10.66 0 0 1 10.64 10.66z" fill="#7c2b1c"/><path d="m284.7 260.08h-21.31v-8.34a10.66 10.66 0 0 1 10.66-10.66 10.66 10.66 0 0 1 10.65 10.66z" fill="#7c2b1c"/><path d="m383.29 241.08a10.66 10.66 0 0 0 -10.66 10.66v2a10.66 10.66 0 0 1 10.66-10.66 10.66 10.66 0 0 1 10.65 10.66v-2a10.66 10.66 0 0 0 -10.65-10.66z" fill="#5d1d18"/><path d="m356 241.08a10.66 10.66 0 0 0 -10.66 10.66v2a10.66 10.66 0 0 1 10.66-10.66 10.66 10.66 0 0 1 10.65 10.66v-2a10.66 10.66 0 0 0 -10.65-10.66z" fill="#5d1d18"/><path d="m328.67 241.08a10.66 10.66 0 0 0 -10.67 10.66v2a10.66 10.66 0 0 1 10.66-10.66 10.66 10.66 0 0 1 10.65 10.66v-2a10.66 10.66 0 0 0 -10.64-10.66z" fill="#5d1d18"/><path d="m301.36 241.08a10.66 10.66 0 0 0 -10.66 10.66v2a10.66 10.66 0 0 1 10.66-10.66 10.66 10.66 0 0 1 10.64 10.66v-2a10.66 10.66 0 0 0 -10.64-10.66z" fill="#5d1d18"/><path d="m274.05 241.08a10.66 10.66 0 0 0 -10.66 10.66v2a10.66 10.66 0 0 1 10.66-10.66 10.66 10.66 0 0 1 10.65 10.66v-2a10.66 10.66 0 0 0 -10.65-10.66z" fill="#5d1d18"/><path d="m406.7 145.55h51.81v114.53h-51.81z" fill="#ba4127"/><path d="m203.6 216.25h254.91v2h-254.91z" fill="#f7ded0"/><path d="m203.6 221.75h254.91v2h-254.91z" fill="#f7ded0"/><path d="m447.1 224.83h-29v-38.9a14.5 14.5 0 0 1 14.5-14.5 14.5 14.5 0 0 1 14.5 14.5z" fill="#ba4127"/><path d="m447.1 224.83h-29v-38.9a14.5 14.5 0 1 1 29 0zm-27-2h25v-36.9a12.5 12.5 0 1 0 -25 0z" fill="#f7ded0"/><path d="m441.51 108.58h-17.81l-17 36.97h51.81z" fill="#f4e9d2"/><path d="m441.51 108.58h-17.81l-17 36.97h51.81z" fill="#f4e9d2"/><path d="m410.38 145.87-1.36-.63 17-36.97 1.36.63z" fill="#e6dac0"/><path d="m454.83 145.87-17-36.97 1.36-.63 17 36.97z" fill="#e6dac0"/><path d="m416.1 130.43h33v1.5h-33z" fill="#e6dac0"/><path d="m424.6 145.55 8-17.42 8 17.42z" fill="#ba4127"/><path d="m414.22 154.47h-1v-2.32a3 3 0 0 0 -6 0v2.32h-1v-2.32a4 4 0 0 1 8 0z" fill="#fcf2e4"/><path d="m421.24 154.47h-1v-2.32a3 3 0 1 0 -6 0v2.32h-1v-2.32a4 4 0 1 1 8 0z" fill="#fcf2e4"/><path d="m452 154.47h-1v-2.32a3 3 0 1 0 -6 0v2.32h-1v-2.32a4 4 0 1 1 8 0z" fill="#fcf2e4"/><path d="m459 154.47h-1v-2.32a3 3 0 1 0 -6 0v2.32h-1v-2.32a4 4 0 1 1 8 0z" fill="#fcf2e4"/><path d="m439.93 149.55h-1v-1.91a6.33 6.33 0 1 0 -12.65 0v1.91h-1v-1.91a7.33 7.33 0 1 1 14.65 0z" fill="#fcf2e4"/><path d="m432.6 142.81a4.82 4.82 0 0 0 -4.82 4.83v11.91h9.65v-11.91a4.83 4.83 0 0 0 -4.83-4.83z" fill="#7c2b1c"/><path d="m432.6 142.81a4.82 4.82 0 0 0 -4.82 4.83v1.41a4.83 4.83 0 0 1 9.65 0v-1.41a4.83 4.83 0 0 0 -4.83-4.83z" fill="#5d1d18"/><path d="m418.1 185.93h9.67v38.9h-9.67z" fill="#7c2b1c"/><path d="m427.77 185.93h9.67v38.9h-9.67z" fill="#7c2b1c"/><path d="m437.44 185.93h9.67v38.9h-9.67z" fill="#7c2b1c"/><path d="m418.1 223.17h29v1.67h-29z" fill="#d04c31"/><path d="m427.27 188.93h1v23.65h-1z" fill="#f7ded0"/><path d="m426.77 212.58h2v10.58h-2z" fill="#f7ded0"/><path d="m436.94 188.93h1v23.65h-1z" fill="#f7ded0"/><path d="m436.44 212.58h2v10.58h-2z" fill="#f7ded0"/><path d="m425.77 185.93h4v5h-4z" fill="#f7ded0"/><path d="m435.44 185.93h4v5h-4z" fill="#f7ded0"/><path d="m418.1 185.93h29v1.5h-29z" fill="#f4e9d2"/><path d="m443.26 260.08h-21.26v-13.34a10.66 10.66 0 0 1 10.65-10.66 10.66 10.66 0 0 1 10.66 10.66z" fill="#7c2b1c"/><path d="m432.6 236.08a10.66 10.66 0 0 0 -10.6 10.66v2a10.66 10.66 0 1 1 21.31 0v-2a10.66 10.66 0 0 0 -10.71-10.66z" fill="#5d1d18"/><path d="m418.1 194.46h29v1h-29z" fill="#f7ded0"/><path d="m422.6 106.73h20v1.86h-20z" fill="#e6dac0"/><path d="m426.1 98.69h13v8.23h-13z" fill="#e6dac0"/><path d="m437.47 99.56h.75v6.56h-.75z" fill="#9fd1d3"/><path d="m435.97 99.56h.75v6.56h-.75z" fill="#9fd1d3"/><path d="m434.47 99.56h.75v6.56h-.75z" fill="#9fd1d3"/><path d="m432.97 99.56h.75v6.56h-.75z" fill="#9fd1d3"/><path d="m431.47 99.56h.75v6.56h-.75z" fill="#9fd1d3"/><path d="m429.97 99.56h.75v6.56h-.75z" fill="#9fd1d3"/><path d="m428.47 99.56h.75v6.56h-.75z" fill="#9fd1d3"/><path d="m426.97 99.56h.75v6.56h-.75z" fill="#9fd1d3"/><path d="m426.1 93.38h.89v5.31h-.89z" fill="#e6dac0"/><path d="m438.22 93.38h.89v5.31h-.89z" fill="#e6dac0"/><path d="m458.51 146.55h-18.55l-7.36-16.02-7.35 16.02h-18.55v-2h17.26l8.64-18.82 8.65 18.82h17.26z" fill="#fcf2e4"/><path d="m422.6 116.74h20v1.5h-20z" fill="#e6dac0"/><path d="m258.84 170.79h147.86v1.97h-147.86z" fill="#f4e9d2"/></symbol><g clip-path="url(#a)" opacity=".9"><use height="260.08" transform="scale(1.3)" width="459.01" xlink:href="#b"/></g></svg>