<svg xmlns="http://www.w3.org/2000/svg" xmlns:xlink="http://www.w3.org/1999/xlink" viewBox="0 0 595.28 337.3"><defs><clipPath id="b4850c51-85c9-4aa0-be39-0d7b2ed30eaa" transform="translate(0 -17.38)"><rect x="0.8" width="595.28" height="297.64" style="fill:none"/></clipPath><symbol id="eda010f9-c307-4776-bfec-c9ce36032eb9" data-name="New Symbol 6" viewBox="0 0 459.01 260.08"><rect x="203.6" y="68.08" width="51.81" height="192" style="fill:#ba4127"/><rect x="245.03" y="44.6" width="10.37" height="23.48" style="fill:#e6dac0"/><rect x="203.6" y="44.6" width="10.37" height="23.48" style="fill:#e6dac0"/><polygon points="255.41 44.6 248.91 44.6 255.41 62.56 255.41 44.6" style="fill:#e6dac0"/><polygon points="248.91 44.6 245.03 44.6 245.03 68.08 255.41 68.08 255.41 62.56 248.91 44.6" style="fill:#d6cab5"/><polygon points="210.1 44.6 213.97 44.6 213.97 68.08 203.6 68.08 203.6 62.56 210.1 44.6" style="fill:#d6cab5"/><polygon points="238.41 21.11 220.6 21.11 203.6 68.08 255.41 68.08 238.41 21.11" style="fill:#f4e9d2"/><rect x="211.05" y="55.59" width="37" height="1.5" style="fill:#e6dac0"/><polygon points="251.7 68.34 234.7 21.37 236.11 20.86 253.11 67.83 251.7 68.34" style="fill:#e6dac0"/><polygon points="207.31 68.34 205.9 67.83 222.9 20.86 224.31 21.37 207.31 68.34" style="fill:#e6dac0"/><rect x="217.64" y="56.75" width="23.73" height="22.67" style="fill:#c3482e"/><polygon points="221.5 56.75 229.5 44.32 237.5 56.75 221.5 56.75" style="fill:#ba4127"/><circle cx="229.5" cy="68.08" r="9" style="fill:#ba4127"/><circle cx="229.5" cy="68.08" r="7.5" style="fill:#f4e9d2"/><path d="M229.5,74.46a6.38,6.38,0,1,1,6.38-6.38A6.38,6.38,0,0,1,229.5,74.46Zm0-12a5.63,5.63,0,1,0,5.63,5.62A5.62,5.62,0,0,0,229.5,62.46Z" style="fill:#816663"/><path d="M229.5,72.28a4.2,4.2,0,1,1,4.2-4.2A4.2,4.2,0,0,1,229.5,72.28Zm0-7.64A3.45,3.45,0,1,0,233,68.08,3.45,3.45,0,0,0,229.5,64.64Z" style="fill:#816663"/><rect x="229.13" y="62.08" width="0.75" height="2.18" style="fill:#816663"/><rect x="233.32" y="67.71" width="2.18" height="0.75" style="fill:#816663"/><rect x="229.13" y="71.9" width="0.75" height="2.18" style="fill:#816663"/><rect x="223.5" y="67.71" width="2.18" height="0.75" style="fill:#816663"/><polygon points="230.56 69.67 229.17 68.26 227.78 65.62 228.44 65.27 229.81 67.86 231.09 69.14 230.56 69.67" style="fill:#816663"/><rect x="217.64" y="79.42" width="23.73" height="2.4" style="fill:#f4e9d2"/><g style="opacity:0.1;mix-blend-mode:color-burn"><rect x="241.37" y="68.08" width="2.08" height="13.74" style="fill:#7c2b1c"/></g><g style="opacity:0.1;mix-blend-mode:color-burn"><polygon points="231.27 91.94 226.68 88.78 226.68 82.52 237.47 81.82 237.47 88.08 232.87 91.23 231.27 91.94" style="fill:#7c2b1c"/></g><g style="opacity:0.1;mix-blend-mode:color-burn"><polygon points="229.5 96.06 229.5 87.23 234.25 87.23 234.25 96.06 229.5 96.06" style="fill:#7c2b1c"/></g><polygon points="232.25 89.23 226.68 89.23 223.47 87.02 223.47 81.82 235.47 81.82 235.47 87.02 232.25 89.23" style="fill:#c3482e"/><rect x="226.68" y="89.23" width="5.57" height="6.83" style="fill:#c3482e"/><rect x="226.68" y="96.06" width="5.57" height="3.09" style="fill:#f4e9d2"/><rect x="227.87" y="99.16" width="3.18" height="1.36" style="fill:#ddc5bd"/><polygon points="226.68 109.01 232.25 109.01 232.25 112.11 226.68 112.11 226.68 109.01" style="fill:#f4e9d2"/><polygon points="227.87 109.01 231.06 109.01 231.06 107.66 227.87 107.66 227.87 109.01" style="fill:#ddc5bd"/><rect x="227.87" y="100.51" width="3.18" height="7.14" style="fill:#f4e9d2"/><path d="M220.68,103.18h0a6.78,6.78,0,0,1,6.78,6.78v31a0,0,0,0,1,0,0H213.9a0,0,0,0,1,0,0V110A6.78,6.78,0,0,1,220.68,103.18Z" style="fill:#7c2b1c"/><path d="M238.25,103.18h0A6.78,6.78,0,0,1,245,110v31a0,0,0,0,1,0,0H231.47a0,0,0,0,1,0,0V110A6.78,6.78,0,0,1,238.25,103.18Z" style="fill:#7c2b1c"/><path d="M220.68,103.18A6.78,6.78,0,0,0,213.9,110v3a6.79,6.79,0,0,1,13.57,0v-3A6.78,6.78,0,0,0,220.68,103.18Z" style="fill:#5d1d18"/><path d="M238.25,103.18a6.77,6.77,0,0,0-6.78,6.78v3A6.78,6.78,0,0,1,245,113v-3A6.77,6.77,0,0,0,238.25,103.18Z" style="fill:#5d1d18"/><path d="M238.75,140.92h-1V113a2.89,2.89,0,1,0-5.78,0h-1a3.89,3.89,0,1,1,7.78,0Z" style="fill:#f7ded0"/><path d="M238.75,140.92h-1V113a3.89,3.89,0,1,1,7.78,0h-1a2.89,2.89,0,1,0-5.78,0Z" style="fill:#f7ded0"/><path d="M221.18,140.92h-1V113a2.89,2.89,0,1,0-5.78,0h-1a3.89,3.89,0,1,1,7.78,0Z" style="fill:#f7ded0"/><path d="M221.18,140.92h-1V113a3.9,3.9,0,1,1,7.79,0h-1a2.9,2.9,0,1,0-5.79,0Z" style="fill:#f7ded0"/><path d="M214.9,115.58H203.6v-2h9.3v-3.69a7.79,7.79,0,0,1,15.57,0v4.69h-2v-4.69a5.79,5.79,0,0,0-11.57,0Z" style="fill:#f7ded0"/><path d="M255.41,115.58H244v-5.69a5.78,5.78,0,1,0-11.56,0v4.69h-2v-4.69a7.78,7.78,0,1,1,15.56,0v3.69h9.38Z" style="fill:#f7ded0"/><rect x="226.48" y="111.22" width="6.01" height="6.36" style="fill:#f4e9d2"/><rect x="211.97" y="132.58" width="35" height="8.33" style="fill:#f4e9d2"/><rect x="212.97" y="133.58" width="1.13" height="6.33" style="fill:#ad3b25"/><rect x="215.09" y="133.58" width="1.13" height="6.33" style="fill:#ad3b25"/><rect x="217.22" y="133.58" width="1.13" height="6.33" style="fill:#ad3b25"/><rect x="219.34" y="133.58" width="1.12" height="6.33" style="fill:#ad3b25"/><rect x="221.47" y="133.58" width="1.13" height="6.33" style="fill:#ad3b25"/><rect x="223.59" y="133.58" width="1.13" height="6.33" style="fill:#ad3b25"/><rect x="225.72" y="133.58" width="1.13" height="6.33" style="fill:#ad3b25"/><rect x="227.84" y="133.58" width="1.12" height="6.33" style="fill:#ad3b25"/><rect x="229.97" y="133.58" width="1.13" height="6.33" style="fill:#ad3b25"/><rect x="232.09" y="133.58" width="1.13" height="6.33" style="fill:#ad3b25"/><rect x="234.22" y="133.58" width="1.13" height="6.33" style="fill:#ad3b25"/><rect x="236.34" y="133.58" width="1.13" height="6.33" style="fill:#ad3b25"/><rect x="238.47" y="133.58" width="1.13" height="6.33" style="fill:#ad3b25"/><rect x="240.59" y="133.58" width="1.13" height="6.33" style="fill:#ad3b25"/><rect x="242.72" y="133.58" width="1.13" height="6.33" style="fill:#ad3b25"/><rect x="244.84" y="133.58" width="1.13" height="6.33" style="fill:#ad3b25"/><path d="M211.12,77h-1V74.68a3,3,0,1,0-6,0V77h-1V74.68a4,4,0,1,1,8,0Z" style="fill:#ffede3"/><path d="M218.14,77h-1V74.68a3,3,0,0,0-6,0V77h-1V74.68a4,4,0,0,1,8,0Z" style="fill:#ffede3"/><path d="M248.89,77h-1V74.68a3,3,0,1,0-6,0V77h-1V74.68a4,4,0,0,1,8,0Z" style="fill:#ffede3"/><path d="M255.91,77h-1V74.68a3,3,0,1,0-6,0V77h-1V74.68a4,4,0,1,1,8,0Z" style="fill:#ffede3"/><rect x="215.55" y="41.57" width="28" height="1.5" style="fill:#e6dac0"/><polygon points="255.41 69.08 240.37 69.08 240.37 57.75 236.96 57.75 229.5 46.17 222.05 57.75 218.64 57.75 218.64 69.08 203.6 69.08 203.6 67.08 216.64 67.08 216.64 55.75 220.96 55.75 229.5 42.48 238.05 55.75 242.37 55.75 242.37 67.08 255.41 67.08 255.41 69.08" style="fill:#ffede3"/><path d="M218.42,213.53V176.62a5.83,5.83,0,1,1,11.65,0v36.91Z" style="fill:#7c2b1c"/><path d="M243.73,184.71h-2v-8.09a5.82,5.82,0,0,0-10.8-3l-.86,1.4-.85-1.4a5.82,5.82,0,0,0-10.8,3v8.09h-2v-8.09a7.84,7.84,0,0,1,7.83-7.83,7.72,7.72,0,0,1,5.82,2.61,7.83,7.83,0,0,1,13.66,5.22Z" style="fill:#f7ded0"/><path d="M230.07,213.53V176.62a5.83,5.83,0,1,1,11.66,0v36.91Z" style="fill:#7c2b1c"/><path d="M224.25,172.79a5.83,5.83,0,0,1,5.82,5.83v-2a5.83,5.83,0,1,0-11.65,0v2A5.83,5.83,0,0,1,224.25,172.79Z" style="fill:#5d1d18"/><path d="M235.9,170.79a5.84,5.84,0,0,0-5.83,5.83v2a5.83,5.83,0,1,1,11.66,0v-2A5.84,5.84,0,0,0,235.9,170.79Z" style="fill:#5d1d18"/><rect x="218.42" y="212.12" width="23.31" height="1.4" style="fill:#d04c31"/><rect x="228.57" y="179.21" width="3" height="2.63" style="fill:#ba4127"/><rect x="229.07" y="181.83" width="2" height="31.7" style="fill:#f4e9d2"/><g style="opacity:0.1;mix-blend-mode:color-burn"><rect x="229.07" y="178.33" width="2" height="0.88" style="fill:#7c2b1c"/></g><rect x="229.07" y="173.35" width="2" height="4.98" style="fill:#ba4127"/><rect x="229.07" y="181.83" width="2" height="0.88" style="fill:#d2b5a8"/><g style="opacity:0.1;mix-blend-mode:color-burn"><rect x="211.97" y="140.92" width="35" height="2.35" style="fill:#7c2b1c"/></g><path d="M230.07,230.83h0a11.65,11.65,0,0,1,11.65,11.65v17.6a0,0,0,0,1,0,0H218.42a0,0,0,0,1,0,0v-17.6A11.65,11.65,0,0,1,230.07,230.83Z" style="fill:#f4e9d2"/><path d="M221.42,260.08V242.49a8.66,8.66,0,1,1,17.31,0v17.59Z" style="fill:#7c2b1c"/><path d="M230.07,233.83a8.67,8.67,0,0,0-8.65,8.66v2a8.66,8.66,0,1,1,17.31,0v-2A8.67,8.67,0,0,0,230.07,233.83Z" style="fill:#5d1d18"/><rect x="219.5" y="19.25" width="20" height="1.86" style="fill:#e6dac0"/><rect x="223" y="11.21" width="13" height="8.23" style="fill:#e6dac0"/><rect x="234.37" y="12.08" width="0.75" height="6.56" style="fill:#9fd1d3"/><rect x="232.87" y="12.08" width="0.75" height="6.56" style="fill:#9fd1d3"/><rect x="231.37" y="12.08" width="0.75" height="6.56" style="fill:#9fd1d3"/><rect x="229.87" y="12.08" width="0.75" height="6.56" style="fill:#9fd1d3"/><rect x="228.37" y="12.08" width="0.75" height="6.56" style="fill:#9fd1d3"/><rect x="226.87" y="12.08" width="0.75" height="6.56" style="fill:#9fd1d3"/><rect x="225.37" y="12.08" width="0.75" height="6.56" style="fill:#9fd1d3"/><rect x="223.87" y="12.08" width="0.75" height="6.56" style="fill:#9fd1d3"/><rect x="223" y="5.9" width="0.89" height="5.31" style="fill:#e6dac0"/><rect x="229.06" width="0.89" height="11.21" style="fill:#e6dac0"/><rect x="235.12" y="5.9" width="0.89" height="5.31" style="fill:#e6dac0"/><rect x="254.52" y="37.52" width="0.89" height="7.07" style="fill:#e6dac0"/><rect x="203.6" y="37.52" width="0.89" height="7.07" style="fill:#e6dac0"/><rect x="220" y="30.92" width="19" height="1.5" style="fill:#e6dac0"/><rect x="52.31" y="172.76" width="151.29" height="87.32" style="fill:#ba4127"/><rect x="49.31" y="145.55" width="154.29" height="27.21" style="fill:#ebdabe"/><polygon points="49.31 142.12 203.6 142.12 203.6 145.54 49.31 145.54 49.31 142.12" style="fill:#f4e9d2"/><g style="opacity:0.1"><polygon points="200.16 172.76 203.6 172.76 203.6 142.12 200.16 142.12 200.16 172.76" style="fill:#7c2b1c"/></g><g style="opacity:0.5"><polygon points="200.16 172.76 203.6 172.76 203.6 260.08 200.16 260.08 200.16 172.76" style="fill:#7c2b1c"/></g><g style="opacity:0.5"><polygon points="52.31 176.43 55.74 176.43 55.74 260.08 52.31 260.08 52.31 176.43" style="fill:#7c2b1c"/></g><path d="M81.55,191.79h0a4.83,4.83,0,0,1,4.83,4.83v16.91H76.72V196.62A4.83,4.83,0,0,1,81.55,191.79Z" style="fill:#7c2b1c"/><path d="M89.88,197.62h-1v-1a7.32,7.32,0,0,0-12.79-4.88l-.37.42-.37-.42a7.32,7.32,0,0,0-12.78,4.88v1h-1v-1a8.31,8.31,0,0,1,14.15-5.93,8.32,8.32,0,0,1,14.16,5.93Z" style="fill:#f7ded0"/><path d="M69.89,191.79h0a4.83,4.83,0,0,1,4.83,4.83v16.91H65.07V196.62A4.82,4.82,0,0,1,69.89,191.79Z" style="fill:#7c2b1c"/><path d="M69.89,191.79a4.83,4.83,0,0,1,4.83,4.83V198a4.83,4.83,0,1,0-9.65,0v-1.41A4.82,4.82,0,0,1,69.89,191.79Z" style="fill:#5d1d18"/><path d="M81.55,191.79a4.83,4.83,0,0,1,4.83,4.83V198a4.83,4.83,0,0,0-9.66,0v-1.41A4.83,4.83,0,0,1,81.55,191.79Z" style="fill:#5d1d18"/><polygon points="74.22 201.84 77.22 201.84 77.22 199.21 74.22 199.21 74.22 201.84" style="fill:#ba4127"/><polygon points="74.72 213.53 76.72 213.53 76.72 201.84 74.72 201.84 74.72 213.53" style="fill:#f4e9d2"/><g style="opacity:0.1;mix-blend-mode:color-burn"><polygon points="74.72 198.34 76.72 198.34 76.72 199.21 74.72 199.21 74.72 198.34" style="fill:#7c2b1c"/></g><polygon points="74.72 201.84 76.72 201.84 76.72 202.71 74.72 202.71 74.72 201.84" style="fill:#d2b5a8"/><path d="M108.86,191.79h0a4.83,4.83,0,0,1,4.83,4.83v16.91H104V196.62A4.83,4.83,0,0,1,108.86,191.79Z" style="fill:#7c2b1c"/><path d="M117.19,197.62h-1v-1a7.32,7.32,0,0,0-12.79-4.88l-.37.42-.37-.42a7.32,7.32,0,0,0-12.78,4.88v1h-1v-1A8.31,8.31,0,0,1,103,190.69a8.32,8.32,0,0,1,14.16,5.93Z" style="fill:#f7ded0"/><path d="M97.2,191.79h0a4.83,4.83,0,0,1,4.83,4.83v16.91H92.38V196.62A4.82,4.82,0,0,1,97.2,191.79Z" style="fill:#7c2b1c"/><path d="M97.2,191.79a4.83,4.83,0,0,1,4.83,4.83V198a4.83,4.83,0,1,0-9.65,0v-1.41A4.82,4.82,0,0,1,97.2,191.79Z" style="fill:#5d1d18"/><path d="M108.86,191.79a4.83,4.83,0,0,1,4.83,4.83V198a4.83,4.83,0,0,0-9.66,0v-1.41A4.83,4.83,0,0,1,108.86,191.79Z" style="fill:#5d1d18"/><polygon points="101.53 201.84 104.53 201.84 104.53 199.21 101.53 199.21 101.53 201.84" style="fill:#ba4127"/><polygon points="102.03 213.53 104.03 213.53 104.03 201.84 102.03 201.84 102.03 213.53" style="fill:#f4e9d2"/><g style="opacity:0.1;mix-blend-mode:color-burn"><polygon points="102.03 198.34 104.03 198.34 104.03 199.21 102.03 199.21 102.03 198.34" style="fill:#7c2b1c"/></g><polygon points="102.03 201.84 104.03 201.84 104.03 202.71 102.03 202.71 102.03 201.84" style="fill:#d2b5a8"/><path d="M136.17,191.79h0a4.83,4.83,0,0,1,4.83,4.83v16.91h-9.66V196.62A4.83,4.83,0,0,1,136.17,191.79Z" style="fill:#7c2b1c"/><path d="M144.5,197.62h-1v-1a7.32,7.32,0,0,0-12.79-4.88l-.37.42-.37-.42a7.32,7.32,0,0,0-12.78,4.88v1h-1v-1a8.31,8.31,0,0,1,14.15-5.93,8.32,8.32,0,0,1,14.16,5.93Z" style="fill:#f7ded0"/><path d="M124.51,191.79h0a4.83,4.83,0,0,1,4.83,4.83v16.91h-9.65V196.62A4.82,4.82,0,0,1,124.51,191.79Z" style="fill:#7c2b1c"/><path d="M124.51,191.79a4.83,4.83,0,0,1,4.83,4.83V198a4.83,4.83,0,1,0-9.65,0v-1.41A4.82,4.82,0,0,1,124.51,191.79Z" style="fill:#5d1d18"/><path d="M136.17,191.79a4.83,4.83,0,0,1,4.83,4.83V198a4.83,4.83,0,1,0-9.66,0v-1.41A4.83,4.83,0,0,1,136.17,191.79Z" style="fill:#5d1d18"/><polygon points="128.84 201.84 131.84 201.84 131.84 199.21 128.84 199.21 128.84 201.84" style="fill:#ba4127"/><polygon points="129.34 213.53 131.34 213.53 131.34 201.84 129.34 201.84 129.34 213.53" style="fill:#f4e9d2"/><g style="opacity:0.1;mix-blend-mode:color-burn"><polygon points="129.34 198.34 131.34 198.34 131.34 199.21 129.34 199.21 129.34 198.34" style="fill:#7c2b1c"/></g><polygon points="129.34 201.84 131.34 201.84 131.34 202.71 129.34 202.71 129.34 201.84" style="fill:#d2b5a8"/><path d="M163.48,191.79h0a4.83,4.83,0,0,1,4.83,4.83v16.91h-9.66V196.62A4.83,4.83,0,0,1,163.48,191.79Z" style="fill:#7c2b1c"/><path d="M171.81,197.62h-1v-1A7.32,7.32,0,0,0,158,191.74l-.37.42-.37-.42a7.32,7.32,0,0,0-12.78,4.88v1h-1v-1a8.31,8.31,0,0,1,14.15-5.93,8.32,8.32,0,0,1,14.16,5.93Z" style="fill:#f7ded0"/><path d="M151.82,191.79h0a4.83,4.83,0,0,1,4.83,4.83v16.91H147V196.62A4.82,4.82,0,0,1,151.82,191.79Z" style="fill:#7c2b1c"/><path d="M151.82,191.79a4.83,4.83,0,0,1,4.83,4.83V198a4.83,4.83,0,1,0-9.65,0v-1.41A4.82,4.82,0,0,1,151.82,191.79Z" style="fill:#5d1d18"/><path d="M163.48,191.79a4.83,4.83,0,0,1,4.83,4.83V198a4.83,4.83,0,1,0-9.66,0v-1.41A4.83,4.83,0,0,1,163.48,191.79Z" style="fill:#5d1d18"/><polygon points="156.15 201.84 159.15 201.84 159.15 199.21 156.15 199.21 156.15 201.84" style="fill:#ba4127"/><polygon points="156.65 213.53 158.65 213.53 158.65 201.84 156.65 201.84 156.65 213.53" style="fill:#f4e9d2"/><g style="opacity:0.1;mix-blend-mode:color-burn"><polygon points="156.65 198.34 158.65 198.34 158.65 199.21 156.65 199.21 156.65 198.34" style="fill:#7c2b1c"/></g><polygon points="156.65 201.84 158.65 201.84 158.65 202.71 156.65 202.71 156.65 201.84" style="fill:#d2b5a8"/><path d="M190.79,191.79h0a4.83,4.83,0,0,1,4.83,4.83v16.91H186V196.62A4.83,4.83,0,0,1,190.79,191.79Z" style="fill:#7c2b1c"/><path d="M199.12,197.62h-1v-1a7.32,7.32,0,0,0-12.79-4.88l-.37.42-.37-.42a7.32,7.32,0,0,0-12.78,4.88v1h-1v-1A8.31,8.31,0,0,1,185,190.69a8.32,8.32,0,0,1,14.16,5.93Z" style="fill:#f7ded0"/><path d="M179.13,191.79h0a4.83,4.83,0,0,1,4.83,4.83v16.91h-9.65V196.62A4.82,4.82,0,0,1,179.13,191.79Z" style="fill:#7c2b1c"/><path d="M179.13,191.79a4.83,4.83,0,0,1,4.83,4.83V198a4.83,4.83,0,1,0-9.65,0v-1.41A4.82,4.82,0,0,1,179.13,191.79Z" style="fill:#5d1d18"/><path d="M190.79,191.79a4.83,4.83,0,0,1,4.83,4.83V198a4.83,4.83,0,0,0-9.66,0v-1.41A4.83,4.83,0,0,1,190.79,191.79Z" style="fill:#5d1d18"/><polygon points="183.46 201.84 186.46 201.84 186.46 199.21 183.46 199.21 183.46 201.84" style="fill:#ba4127"/><polygon points="183.96 213.53 185.96 213.53 185.96 201.84 183.96 201.84 183.96 213.53" style="fill:#f4e9d2"/><g style="opacity:0.1;mix-blend-mode:color-burn"><polygon points="183.96 198.34 185.96 198.34 185.96 199.21 183.96 199.21 183.96 198.34" style="fill:#7c2b1c"/></g><polygon points="183.96 201.84 185.96 201.84 185.96 202.71 183.96 202.71 183.96 201.84" style="fill:#d2b5a8"/><path d="M58.06,183.74h-.75v-2.49a1.13,1.13,0,1,0-2.25,0v2.49h-.75v-2.49a1.88,1.88,0,1,1,3.75,0Z" style="fill:#fcf2e4"/><path d="M61.06,183.74h-.75v-2.49a1.13,1.13,0,1,0-2.25,0v2.49h-.75v-2.49a1.88,1.88,0,1,1,3.75,0Z" style="fill:#fcf2e4"/><path d="M64.06,183.74h-.75v-2.49a1.13,1.13,0,1,0-2.25,0v2.49h-.75v-2.49a1.88,1.88,0,1,1,3.75,0Z" style="fill:#fcf2e4"/><path d="M67.06,183.74h-.75v-2.49a1.13,1.13,0,1,0-2.25,0v2.49h-.75v-2.49a1.88,1.88,0,1,1,3.75,0Z" style="fill:#fcf2e4"/><path d="M70.06,183.74h-.75v-2.49a1.13,1.13,0,1,0-2.25,0v2.49h-.75v-2.49a1.88,1.88,0,1,1,3.75,0Z" style="fill:#fcf2e4"/><path d="M73.06,183.74h-.75v-2.49a1.13,1.13,0,1,0-2.25,0v2.49h-.75v-2.49a1.88,1.88,0,1,1,3.75,0Z" style="fill:#fcf2e4"/><path d="M76.06,183.74h-.75v-2.49a1.13,1.13,0,1,0-2.25,0v2.49h-.75v-2.49a1.88,1.88,0,1,1,3.75,0Z" style="fill:#fcf2e4"/><path d="M79.06,183.74h-.75v-2.49a1.13,1.13,0,1,0-2.25,0v2.49h-.75v-2.49a1.88,1.88,0,1,1,3.75,0Z" style="fill:#fcf2e4"/><path d="M82.06,183.74h-.75v-2.49a1.13,1.13,0,1,0-2.25,0v2.49h-.75v-2.49a1.88,1.88,0,1,1,3.75,0Z" style="fill:#fcf2e4"/><path d="M85.06,183.74h-.75v-2.49a1.13,1.13,0,1,0-2.25,0v2.49h-.75v-2.49a1.88,1.88,0,1,1,3.75,0Z" style="fill:#fcf2e4"/><path d="M88.06,183.74h-.75v-2.49a1.13,1.13,0,1,0-2.25,0v2.49h-.75v-2.49a1.88,1.88,0,1,1,3.75,0Z" style="fill:#fcf2e4"/><path d="M91.06,183.74h-.75v-2.49a1.13,1.13,0,1,0-2.25,0v2.49h-.75v-2.49a1.88,1.88,0,1,1,3.75,0Z" style="fill:#fcf2e4"/><path d="M94.06,183.74h-.75v-2.49a1.13,1.13,0,1,0-2.25,0v2.49h-.75v-2.49a1.88,1.88,0,1,1,3.75,0Z" style="fill:#fcf2e4"/><path d="M97.06,183.74h-.75v-2.49a1.13,1.13,0,1,0-2.25,0v2.49h-.75v-2.49a1.88,1.88,0,1,1,3.75,0Z" style="fill:#fcf2e4"/><path d="M100.06,183.74h-.75v-2.49a1.13,1.13,0,1,0-2.25,0v2.49h-.75v-2.49a1.88,1.88,0,1,1,3.75,0Z" style="fill:#fcf2e4"/><path d="M103.06,183.74h-.75v-2.49a1.13,1.13,0,1,0-2.25,0v2.49h-.75v-2.49a1.88,1.88,0,1,1,3.75,0Z" style="fill:#fcf2e4"/><path d="M106.06,183.74h-.75v-2.49a1.13,1.13,0,1,0-2.25,0v2.49h-.75v-2.49a1.88,1.88,0,1,1,3.75,0Z" style="fill:#fcf2e4"/><path d="M109.06,183.74h-.75v-2.49a1.13,1.13,0,1,0-2.25,0v2.49h-.75v-2.49a1.88,1.88,0,1,1,3.75,0Z" style="fill:#fcf2e4"/><path d="M112.06,183.74h-.75v-2.49a1.13,1.13,0,1,0-2.25,0v2.49h-.75v-2.49a1.88,1.88,0,1,1,3.75,0Z" style="fill:#fcf2e4"/><path d="M115.06,183.74h-.75v-2.49a1.13,1.13,0,1,0-2.25,0v2.49h-.75v-2.49a1.88,1.88,0,1,1,3.75,0Z" style="fill:#fcf2e4"/><path d="M118.06,183.74h-.75v-2.49a1.13,1.13,0,1,0-2.25,0v2.49h-.75v-2.49a1.88,1.88,0,1,1,3.75,0Z" style="fill:#fcf2e4"/><path d="M121.06,183.74h-.75v-2.49a1.13,1.13,0,1,0-2.25,0v2.49h-.75v-2.49a1.88,1.88,0,1,1,3.75,0Z" style="fill:#fcf2e4"/><path d="M124.06,183.74h-.75v-2.49a1.13,1.13,0,1,0-2.25,0v2.49h-.75v-2.49a1.88,1.88,0,1,1,3.75,0Z" style="fill:#fcf2e4"/><path d="M127.06,183.74h-.75v-2.49a1.13,1.13,0,1,0-2.25,0v2.49h-.75v-2.49a1.88,1.88,0,1,1,3.75,0Z" style="fill:#fcf2e4"/><path d="M130.06,183.74h-.75v-2.49a1.13,1.13,0,1,0-2.25,0v2.49h-.75v-2.49a1.88,1.88,0,1,1,3.75,0Z" style="fill:#fcf2e4"/><path d="M133.06,183.74h-.75v-2.49a1.13,1.13,0,1,0-2.25,0v2.49h-.75v-2.49a1.88,1.88,0,1,1,3.75,0Z" style="fill:#fcf2e4"/><path d="M136.06,183.74h-.75v-2.49a1.13,1.13,0,1,0-2.25,0v2.49h-.75v-2.49a1.88,1.88,0,1,1,3.75,0Z" style="fill:#fcf2e4"/><path d="M139.06,183.74h-.75v-2.49a1.13,1.13,0,1,0-2.25,0v2.49h-.75v-2.49a1.88,1.88,0,1,1,3.75,0Z" style="fill:#fcf2e4"/><path d="M142.06,183.74h-.75v-2.49a1.13,1.13,0,1,0-2.25,0v2.49h-.75v-2.49a1.88,1.88,0,1,1,3.75,0Z" style="fill:#fcf2e4"/><path d="M145.06,183.74h-.75v-2.49a1.13,1.13,0,1,0-2.25,0v2.49h-.75v-2.49a1.88,1.88,0,1,1,3.75,0Z" style="fill:#fcf2e4"/><path d="M148.06,183.74h-.75v-2.49a1.13,1.13,0,1,0-2.25,0v2.49h-.75v-2.49a1.88,1.88,0,1,1,3.75,0Z" style="fill:#fcf2e4"/><path d="M151.06,183.74h-.75v-2.49a1.13,1.13,0,1,0-2.25,0v2.49h-.75v-2.49a1.88,1.88,0,1,1,3.75,0Z" style="fill:#fcf2e4"/><path d="M154.06,183.74h-.75v-2.49a1.13,1.13,0,1,0-2.25,0v2.49h-.75v-2.49a1.88,1.88,0,1,1,3.75,0Z" style="fill:#fcf2e4"/><path d="M157.06,183.74h-.75v-2.49a1.13,1.13,0,1,0-2.25,0v2.49h-.75v-2.49a1.88,1.88,0,1,1,3.75,0Z" style="fill:#fcf2e4"/><path d="M160.06,183.74h-.75v-2.49a1.13,1.13,0,1,0-2.25,0v2.49h-.75v-2.49a1.88,1.88,0,1,1,3.75,0Z" style="fill:#fcf2e4"/><path d="M163.06,183.74h-.75v-2.49a1.13,1.13,0,1,0-2.25,0v2.49h-.75v-2.49a1.88,1.88,0,1,1,3.75,0Z" style="fill:#fcf2e4"/><path d="M166.06,183.74h-.75v-2.49a1.13,1.13,0,1,0-2.25,0v2.49h-.75v-2.49a1.88,1.88,0,1,1,3.75,0Z" style="fill:#fcf2e4"/><path d="M169.06,183.74h-.75v-2.49a1.13,1.13,0,1,0-2.25,0v2.49h-.75v-2.49a1.88,1.88,0,1,1,3.75,0Z" style="fill:#fcf2e4"/><path d="M172.06,183.74h-.75v-2.49a1.13,1.13,0,1,0-2.25,0v2.49h-.75v-2.49a1.88,1.88,0,1,1,3.75,0Z" style="fill:#fcf2e4"/><path d="M175.06,183.74h-.75v-2.49a1.13,1.13,0,1,0-2.25,0v2.49h-.75v-2.49a1.88,1.88,0,1,1,3.75,0Z" style="fill:#fcf2e4"/><path d="M178.06,183.74h-.75v-2.49a1.13,1.13,0,1,0-2.25,0v2.49h-.75v-2.49a1.88,1.88,0,1,1,3.75,0Z" style="fill:#fcf2e4"/><path d="M181.06,183.74h-.75v-2.49a1.13,1.13,0,1,0-2.25,0v2.49h-.75v-2.49a1.88,1.88,0,1,1,3.75,0Z" style="fill:#fcf2e4"/><path d="M184.06,183.74h-.75v-2.49a1.13,1.13,0,1,0-2.25,0v2.49h-.75v-2.49a1.88,1.88,0,1,1,3.75,0Z" style="fill:#fcf2e4"/><path d="M187.06,183.74h-.75v-2.49a1.13,1.13,0,1,0-2.25,0v2.49h-.75v-2.49a1.88,1.88,0,1,1,3.75,0Z" style="fill:#fcf2e4"/><path d="M190.06,183.74h-.75v-2.49a1.13,1.13,0,1,0-2.25,0v2.49h-.75v-2.49a1.88,1.88,0,1,1,3.75,0Z" style="fill:#fcf2e4"/><path d="M193.06,183.74h-.75v-2.49a1.13,1.13,0,1,0-2.25,0v2.49h-.75v-2.49a1.88,1.88,0,1,1,3.75,0Z" style="fill:#fcf2e4"/><path d="M196.06,183.74h-.75v-2.49a1.13,1.13,0,1,0-2.25,0v2.49h-.75v-2.49a1.88,1.88,0,1,1,3.75,0Z" style="fill:#fcf2e4"/><path d="M199.06,183.74h-.75v-2.49a1.13,1.13,0,1,0-2.25,0v2.49h-.75v-2.49a1.88,1.88,0,1,1,3.75,0Z" style="fill:#fcf2e4"/><g style="opacity:0.5"><polygon points="52.31 176.43 200.16 176.43 200.16 172.76 52.31 172.76 52.31 176.43" style="fill:#7c2b1c"/></g><polygon points="76.72 236.74 86.38 236.74 86.38 227.09 76.72 227.09 76.72 236.74" style="fill:#7c2b1c"/><polygon points="65.07 236.74 74.72 236.74 74.72 227.09 65.07 227.09 65.07 236.74" style="fill:#7c2b1c"/><polygon points="104.03 236.74 113.69 236.74 113.69 227.09 104.03 227.09 104.03 236.74" style="fill:#7c2b1c"/><polygon points="92.38 236.74 102.03 236.74 102.03 227.09 92.38 227.09 92.38 236.74" style="fill:#7c2b1c"/><polygon points="131.34 236.74 141 236.74 141 227.09 131.34 227.09 131.34 236.74" style="fill:#7c2b1c"/><polygon points="119.69 236.74 129.34 236.74 129.34 227.09 119.69 227.09 119.69 236.74" style="fill:#7c2b1c"/><polygon points="158.65 236.74 168.31 236.74 168.31 227.09 158.65 227.09 158.65 236.74" style="fill:#7c2b1c"/><polygon points="147 236.74 156.65 236.74 156.65 227.09 147 227.09 147 236.74" style="fill:#7c2b1c"/><polygon points="185.96 236.74 195.62 236.74 195.62 227.09 185.96 227.09 185.96 236.74" style="fill:#7c2b1c"/><polygon points="174.31 236.74 183.96 236.74 183.96 227.09 174.31 227.09 174.31 236.74" style="fill:#7c2b1c"/><polygon points="76.72 236.74 86.38 236.74 86.38 235.34 76.72 235.34 76.72 236.74" style="fill:#d04c31"/><polygon points="65.07 236.74 74.72 236.74 74.72 235.34 65.07 235.34 65.07 236.74" style="fill:#d04c31"/><polygon points="104.03 236.74 113.69 236.74 113.69 235.34 104.03 235.34 104.03 236.74" style="fill:#d04c31"/><polygon points="92.38 236.74 102.03 236.74 102.03 235.34 92.38 235.34 92.38 236.74" style="fill:#d04c31"/><polygon points="131.34 236.74 141 236.74 141 235.34 131.34 235.34 131.34 236.74" style="fill:#d04c31"/><polygon points="119.69 236.74 129.34 236.74 129.34 235.34 119.69 235.34 119.69 236.74" style="fill:#d04c31"/><polygon points="158.65 236.74 168.31 236.74 168.31 235.34 158.65 235.34 158.65 236.74" style="fill:#d04c31"/><polygon points="147 236.74 156.65 236.74 156.65 235.34 147 235.34 147 236.74" style="fill:#d04c31"/><polygon points="185.96 236.74 195.62 236.74 195.62 235.34 185.96 235.34 185.96 236.74" style="fill:#d04c31"/><polygon points="174.31 236.74 183.96 236.74 183.96 235.34 174.31 235.34 174.31 236.74" style="fill:#d04c31"/><polygon points="76.72 213.53 86.38 213.53 86.38 212.13 76.72 212.13 76.72 213.53" style="fill:#d04c31"/><polygon points="65.07 213.53 74.72 213.53 74.72 212.13 65.07 212.13 65.07 213.53" style="fill:#d04c31"/><polygon points="104.03 213.53 113.69 213.53 113.69 212.13 104.03 212.13 104.03 213.53" style="fill:#d04c31"/><polygon points="92.38 213.53 102.03 213.53 102.03 212.13 92.38 212.13 92.38 213.53" style="fill:#d04c31"/><polygon points="131.34 213.53 141 213.53 141 212.13 131.34 212.13 131.34 213.53" style="fill:#d04c31"/><polygon points="119.69 213.53 129.34 213.53 129.34 212.13 119.69 212.13 119.69 213.53" style="fill:#d04c31"/><polygon points="158.65 213.53 168.31 213.53 168.31 212.13 158.65 212.13 158.65 213.53" style="fill:#d04c31"/><polygon points="147 213.53 156.65 213.53 156.65 212.13 147 212.13 147 213.53" style="fill:#d04c31"/><polygon points="185.96 213.53 195.62 213.53 195.62 212.13 185.96 212.13 185.96 213.53" style="fill:#d04c31"/><polygon points="174.31 213.53 183.96 213.53 183.96 212.13 174.31 212.13 174.31 213.53" style="fill:#d04c31"/><path d="M65.07,260.08H86.38v-8.34a10.66,10.66,0,0,0-10.66-10.66h0a10.66,10.66,0,0,0-10.65,10.66Z" style="fill:#7c2b1c"/><path d="M92.38,260.08h21.31v-8.34A10.66,10.66,0,0,0,103,241.08h0a10.66,10.66,0,0,0-10.65,10.66Z" style="fill:#7c2b1c"/><path d="M119.69,260.08H141v-8.34a10.66,10.66,0,0,0-10.66-10.66h0a10.66,10.66,0,0,0-10.65,10.66Z" style="fill:#7c2b1c"/><path d="M147,260.08h21.31v-8.34a10.66,10.66,0,0,0-10.66-10.66h0A10.66,10.66,0,0,0,147,251.74Z" style="fill:#7c2b1c"/><path d="M174.31,260.08h21.31v-8.34A10.66,10.66,0,0,0,185,241.08h0a10.66,10.66,0,0,0-10.65,10.66Z" style="fill:#7c2b1c"/><path d="M75.72,241.08h0a10.66,10.66,0,0,1,10.66,10.66v2a10.66,10.66,0,0,0-10.66-10.66h0a10.66,10.66,0,0,0-10.65,10.66v-2A10.66,10.66,0,0,1,75.72,241.08Z" style="fill:#5d1d18"/><path d="M103,241.08h0a10.66,10.66,0,0,1,10.66,10.66v2A10.66,10.66,0,0,0,103,243.08h0a10.66,10.66,0,0,0-10.65,10.66v-2A10.66,10.66,0,0,1,103,241.08Z" style="fill:#5d1d18"/><path d="M130.34,241.08h0A10.66,10.66,0,0,1,141,251.74v2a10.66,10.66,0,0,0-10.66-10.66h0a10.66,10.66,0,0,0-10.65,10.66v-2A10.66,10.66,0,0,1,130.34,241.08Z" style="fill:#5d1d18"/><path d="M157.65,241.08h0a10.66,10.66,0,0,1,10.66,10.66v2a10.66,10.66,0,0,0-10.66-10.66h0A10.66,10.66,0,0,0,147,253.74v-2A10.66,10.66,0,0,1,157.65,241.08Z" style="fill:#5d1d18"/><path d="M185,241.08h0a10.66,10.66,0,0,1,10.66,10.66v2A10.66,10.66,0,0,0,185,243.08h0a10.66,10.66,0,0,0-10.65,10.66v-2A10.66,10.66,0,0,1,185,241.08Z" style="fill:#5d1d18"/><polygon points="0.5 260.08 52.31 260.08 52.31 145.55 0.5 145.55 0.5 260.08" style="fill:#ba4127"/><rect x="0.5" y="216.25" width="254.91" height="2" style="fill:#f7ded0"/><rect x="0.5" y="221.75" width="254.91" height="2" style="fill:#f7ded0"/><path d="M11.9,224.83h29v-38.9a14.5,14.5,0,0,0-14.5-14.5h0a14.5,14.5,0,0,0-14.5,14.5Z" style="fill:#ba4127"/><path d="M40.9,224.83h-29v-38.9a14.5,14.5,0,0,1,29,0Zm-27-2h25v-36.9a12.5,12.5,0,0,0-25,0Z" style="fill:#f7ded0"/><polygon points="17.5 108.58 35.31 108.58 52.31 145.55 0.5 145.55 17.5 108.58" style="fill:#f4e9d2"/><polygon points="17.5 108.58 35.31 108.58 52.31 145.55 0.5 145.55 17.5 108.58" style="fill:#f4e9d2"/><polygon points="48.63 145.87 31.63 108.9 32.99 108.27 49.99 145.24 48.63 145.87" style="fill:#e6dac0"/><polygon points="4.18 145.87 2.82 145.24 19.82 108.27 21.18 108.9 4.18 145.87" style="fill:#e6dac0"/><rect x="9.9" y="130.43" width="33" height="1.5" style="fill:#e6dac0"/><polygon points="34.4 145.55 26.4 128.13 18.4 145.55 34.4 145.55" style="fill:#ba4127"/><path d="M52.81,154.47h-1v-2.32a3,3,0,0,0-6,0v2.32h-1v-2.32a4,4,0,0,1,8,0Z" style="fill:#fcf2e4"/><path d="M45.79,154.47h-1v-2.32a3,3,0,1,0-6,0v2.32h-1v-2.32a4,4,0,1,1,8,0Z" style="fill:#fcf2e4"/><path d="M15,154.47H14v-2.32a3,3,0,1,0-6,0v2.32H7v-2.32a4,4,0,1,1,8,0Z" style="fill:#fcf2e4"/><path d="M8,154.47H7v-2.32a3,3,0,1,0-6,0v2.32H0v-2.32a4,4,0,1,1,8,0Z" style="fill:#fcf2e4"/><path d="M33.73,149.55h-1v-1.91a6.33,6.33,0,1,0-12.65,0v1.91h-1v-1.91a7.33,7.33,0,1,1,14.65,0Z" style="fill:#fcf2e4"/><path d="M26.4,142.81h0a4.83,4.83,0,0,1,4.83,4.83v11.91H21.58V147.64A4.82,4.82,0,0,1,26.4,142.81Z" style="fill:#7c2b1c"/><path d="M26.4,142.81a4.83,4.83,0,0,1,4.83,4.83v1.41a4.83,4.83,0,0,0-9.65,0v-1.41A4.82,4.82,0,0,1,26.4,142.81Z" style="fill:#5d1d18"/><rect x="31.24" y="185.93" width="9.67" height="38.9" style="fill:#7c2b1c"/><rect x="21.57" y="185.93" width="9.67" height="38.9" style="fill:#7c2b1c"/><rect x="11.9" y="185.93" width="9.67" height="38.9" style="fill:#7c2b1c"/><polygon points="11.9 223.17 40.9 223.17 40.9 224.84 11.9 224.84 11.9 223.17" style="fill:#d04c31"/><rect x="30.74" y="188.93" width="1" height="23.65" style="fill:#f7ded0"/><rect x="30.24" y="212.58" width="2" height="10.58" style="fill:#f7ded0"/><rect x="21.07" y="188.93" width="1" height="23.65" style="fill:#f7ded0"/><rect x="20.57" y="212.58" width="2" height="10.58" style="fill:#f7ded0"/><rect x="29.24" y="185.93" width="4" height="5" style="fill:#f7ded0"/><rect x="19.57" y="185.93" width="4" height="5" style="fill:#f7ded0"/><polygon points="11.9 187.43 40.9 187.43 40.9 185.93 11.9 185.93 11.9 187.43" style="fill:#f4e9d2"/><path d="M15.75,260.08H37.06V246.74A10.66,10.66,0,0,0,26.4,236.08h0a10.66,10.66,0,0,0-10.65,10.66Z" style="fill:#7c2b1c"/><path d="M26.4,236.08a10.66,10.66,0,0,1,10.66,10.66v2a10.66,10.66,0,1,0-21.31,0v-2A10.66,10.66,0,0,1,26.4,236.08Z" style="fill:#5d1d18"/><rect x="11.9" y="194.46" width="29" height="1" style="fill:#f7ded0"/><polygon points="16.4 106.73 36.4 106.73 36.4 108.59 16.4 108.59 16.4 106.73" style="fill:#e6dac0"/><polygon points="19.9 106.92 32.9 106.92 32.9 98.69 19.9 98.69 19.9 106.92" style="fill:#e6dac0"/><rect x="20.79" y="99.56" width="0.75" height="6.56" style="fill:#9fd1d3"/><rect x="22.29" y="99.56" width="0.75" height="6.56" style="fill:#9fd1d3"/><rect x="23.79" y="99.56" width="0.75" height="6.56" style="fill:#9fd1d3"/><rect x="25.29" y="99.56" width="0.75" height="6.56" style="fill:#9fd1d3"/><rect x="26.79" y="99.56" width="0.75" height="6.56" style="fill:#9fd1d3"/><rect x="28.29" y="99.56" width="0.75" height="6.56" style="fill:#9fd1d3"/><rect x="29.79" y="99.56" width="0.75" height="6.56" style="fill:#9fd1d3"/><rect x="31.29" y="99.56" width="0.75" height="6.56" style="fill:#9fd1d3"/><polygon points="32.02 93.38 32.9 93.38 32.9 98.69 32.02 98.69 32.02 93.38" style="fill:#e6dac0"/><polygon points="19.9 93.38 20.79 93.38 20.79 98.69 19.9 98.69 19.9 93.38" style="fill:#e6dac0"/><polygon points="52.31 146.55 33.76 146.55 26.4 130.53 19.05 146.55 0.5 146.55 0.5 144.55 17.76 144.55 26.4 125.73 35.05 144.55 52.31 144.55 52.31 146.55" style="fill:#fcf2e4"/><rect x="16.4" y="116.74" width="20" height="1.5" style="fill:#e6dac0"/><polygon points="52.31 170.79 200.16 170.79 200.16 172.76 52.31 172.76 52.31 170.79" style="fill:#f4e9d2"/><rect x="255.41" y="172.76" width="151.29" height="87.32" style="fill:#ba4127"/><rect x="255.41" y="145.55" width="154.29" height="27.21" style="fill:#ebdabe"/><rect x="255.41" y="142.12" width="154.29" height="3.43" style="fill:#f4e9d2"/><g style="opacity:0.1"><rect x="255.41" y="142.12" width="3.43" height="30.65" style="fill:#7c2b1c"/></g><g style="opacity:0.5"><rect x="255.41" y="172.76" width="3.43" height="87.32" style="fill:#7c2b1c"/></g><g style="opacity:0.5"><rect x="403.27" y="176.43" width="3.43" height="83.65" style="fill:#7c2b1c"/></g><path d="M377.46,191.79h0a4.83,4.83,0,0,0-4.83,4.83v16.91h9.66V196.62A4.83,4.83,0,0,0,377.46,191.79Z" style="fill:#7c2b1c"/><path d="M397.44,197.62h-1v-1a7.32,7.32,0,0,0-12.78-4.88l-.37.42-.38-.42a7.32,7.32,0,0,0-12.78,4.88v1h-1v-1a8.32,8.32,0,0,1,14.16-5.93,8.31,8.31,0,0,1,14.15,5.93Z" style="fill:#f7ded0"/><path d="M389.11,191.79h0a4.82,4.82,0,0,0-4.82,4.83v16.91h9.65V196.62A4.83,4.83,0,0,0,389.11,191.79Z" style="fill:#7c2b1c"/><path d="M389.11,191.79a4.82,4.82,0,0,0-4.82,4.83V198a4.83,4.83,0,1,1,9.65,0v-1.41A4.83,4.83,0,0,0,389.11,191.79Z" style="fill:#5d1d18"/><path d="M377.46,191.79a4.83,4.83,0,0,0-4.83,4.83V198a4.83,4.83,0,0,1,9.66,0v-1.41A4.83,4.83,0,0,0,377.46,191.79Z" style="fill:#5d1d18"/><rect x="381.79" y="199.21" width="3" height="2.63" style="fill:#ba4127"/><rect x="382.29" y="201.83" width="2" height="11.69" style="fill:#f4e9d2"/><g style="opacity:0.1;mix-blend-mode:color-burn"><rect x="382.29" y="198.33" width="2" height="0.88" style="fill:#7c2b1c"/></g><rect x="382.29" y="201.83" width="2" height="0.88" style="fill:#d2b5a8"/><path d="M350.15,191.79h0a4.83,4.83,0,0,0-4.83,4.83v16.91H355V196.62A4.83,4.83,0,0,0,350.15,191.79Z" style="fill:#7c2b1c"/><path d="M370.13,197.62h-1v-1a7.32,7.32,0,0,0-12.78-4.88l-.37.42-.38-.42a7.32,7.32,0,0,0-12.78,4.88v1h-1v-1A8.32,8.32,0,0,1,356,190.69a8.31,8.31,0,0,1,14.15,5.93Z" style="fill:#f7ded0"/><path d="M361.8,191.79h0a4.82,4.82,0,0,0-4.82,4.83v16.91h9.65V196.62A4.83,4.83,0,0,0,361.8,191.79Z" style="fill:#7c2b1c"/><path d="M361.8,191.79a4.82,4.82,0,0,0-4.82,4.83V198a4.83,4.83,0,1,1,9.65,0v-1.41A4.83,4.83,0,0,0,361.8,191.79Z" style="fill:#5d1d18"/><path d="M350.15,191.79a4.83,4.83,0,0,0-4.83,4.83V198a4.83,4.83,0,0,1,9.66,0v-1.41A4.83,4.83,0,0,0,350.15,191.79Z" style="fill:#5d1d18"/><rect x="354.48" y="199.21" width="3" height="2.63" style="fill:#ba4127"/><rect x="354.98" y="201.83" width="2" height="11.69" style="fill:#f4e9d2"/><g style="opacity:0.1;mix-blend-mode:color-burn"><rect x="354.98" y="198.33" width="2" height="0.88" style="fill:#7c2b1c"/></g><rect x="354.98" y="201.83" width="2" height="0.88" style="fill:#d2b5a8"/><path d="M322.84,191.79h0a4.83,4.83,0,0,0-4.83,4.83v16.91h9.66V196.62A4.83,4.83,0,0,0,322.84,191.79Z" style="fill:#7c2b1c"/><path d="M342.82,197.62h-1v-1A7.32,7.32,0,0,0,329,191.74l-.37.42-.38-.42a7.32,7.32,0,0,0-12.78,4.88v1h-1v-1a8.32,8.32,0,0,1,14.16-5.93,8.31,8.31,0,0,1,14.15,5.93Z" style="fill:#f7ded0"/><path d="M334.49,191.79h0a4.82,4.82,0,0,0-4.82,4.83v16.91h9.65V196.62A4.83,4.83,0,0,0,334.49,191.79Z" style="fill:#7c2b1c"/><path d="M334.49,191.79a4.82,4.82,0,0,0-4.82,4.83V198a4.83,4.83,0,1,1,9.65,0v-1.41A4.83,4.83,0,0,0,334.49,191.79Z" style="fill:#5d1d18"/><path d="M322.84,191.79a4.83,4.83,0,0,0-4.83,4.83V198a4.83,4.83,0,0,1,9.66,0v-1.41A4.83,4.83,0,0,0,322.84,191.79Z" style="fill:#5d1d18"/><rect x="327.17" y="199.21" width="3" height="2.63" style="fill:#ba4127"/><rect x="327.67" y="201.83" width="2" height="11.69" style="fill:#f4e9d2"/><g style="opacity:0.1;mix-blend-mode:color-burn"><rect x="327.67" y="198.33" width="2" height="0.88" style="fill:#7c2b1c"/></g><rect x="327.67" y="201.83" width="2" height="0.88" style="fill:#d2b5a8"/><path d="M295.53,191.79h0a4.83,4.83,0,0,0-4.83,4.83v16.91h9.66V196.62A4.83,4.83,0,0,0,295.53,191.79Z" style="fill:#7c2b1c"/><path d="M315.51,197.62h-1v-1a7.32,7.32,0,0,0-12.78-4.88l-.37.42-.38-.42a7.32,7.32,0,0,0-12.78,4.88v1h-1v-1a8.32,8.32,0,0,1,14.16-5.93,8.31,8.31,0,0,1,14.15,5.93Z" style="fill:#f7ded0"/><path d="M307.18,191.79h0a4.82,4.82,0,0,0-4.82,4.83v16.91H312V196.62A4.83,4.83,0,0,0,307.18,191.79Z" style="fill:#7c2b1c"/><path d="M307.18,191.79a4.82,4.82,0,0,0-4.82,4.83V198a4.83,4.83,0,1,1,9.65,0v-1.41A4.83,4.83,0,0,0,307.18,191.79Z" style="fill:#5d1d18"/><path d="M295.53,191.79a4.83,4.83,0,0,0-4.83,4.83V198a4.83,4.83,0,0,1,9.66,0v-1.41A4.83,4.83,0,0,0,295.53,191.79Z" style="fill:#5d1d18"/><rect x="299.86" y="199.21" width="3" height="2.63" style="fill:#ba4127"/><rect x="300.36" y="201.83" width="2" height="11.69" style="fill:#f4e9d2"/><g style="opacity:0.1;mix-blend-mode:color-burn"><rect x="300.36" y="198.33" width="2" height="0.88" style="fill:#7c2b1c"/></g><rect x="300.36" y="201.83" width="2" height="0.88" style="fill:#d2b5a8"/><path d="M268.22,191.79h0a4.83,4.83,0,0,0-4.83,4.83v16.91h9.66V196.62A4.83,4.83,0,0,0,268.22,191.79Z" style="fill:#7c2b1c"/><path d="M288.2,197.62h-1v-1a7.32,7.32,0,0,0-12.78-4.88l-.37.42-.38-.42a7.32,7.32,0,0,0-12.78,4.88v1h-1v-1a8.32,8.32,0,0,1,14.16-5.93,8.31,8.31,0,0,1,14.15,5.93Z" style="fill:#f7ded0"/><path d="M279.87,191.79h0a4.82,4.82,0,0,0-4.82,4.83v16.91h9.65V196.62A4.83,4.83,0,0,0,279.87,191.79Z" style="fill:#7c2b1c"/><path d="M279.87,191.79a4.82,4.82,0,0,0-4.82,4.83V198a4.83,4.83,0,1,1,9.65,0v-1.41A4.83,4.83,0,0,0,279.87,191.79Z" style="fill:#5d1d18"/><path d="M268.22,191.79a4.83,4.83,0,0,0-4.83,4.83V198a4.83,4.83,0,1,1,9.66,0v-1.41A4.83,4.83,0,0,0,268.22,191.79Z" style="fill:#5d1d18"/><rect x="272.55" y="199.21" width="3" height="2.63" style="fill:#ba4127"/><rect x="273.05" y="201.83" width="2" height="11.69" style="fill:#f4e9d2"/><g style="opacity:0.1;mix-blend-mode:color-burn"><rect x="273.05" y="198.33" width="2" height="0.88" style="fill:#7c2b1c"/></g><rect x="273.05" y="201.83" width="2" height="0.88" style="fill:#d2b5a8"/><path d="M404.7,183.74H404v-2.49a1.13,1.13,0,1,0-2.25,0v2.49H401v-2.49a1.88,1.88,0,1,1,3.75,0Z" style="fill:#fcf2e4"/><path d="M401.7,183.74H401v-2.49a1.13,1.13,0,1,0-2.25,0v2.49H398v-2.49a1.88,1.88,0,1,1,3.75,0Z" style="fill:#fcf2e4"/><path d="M398.7,183.74H398v-2.49a1.13,1.13,0,1,0-2.25,0v2.49H395v-2.49a1.88,1.88,0,1,1,3.75,0Z" style="fill:#fcf2e4"/><path d="M395.7,183.74H395v-2.49a1.13,1.13,0,1,0-2.25,0v2.49H392v-2.49a1.88,1.88,0,1,1,3.75,0Z" style="fill:#fcf2e4"/><path d="M392.7,183.74H392v-2.49a1.13,1.13,0,1,0-2.25,0v2.49H389v-2.49a1.88,1.88,0,1,1,3.75,0Z" style="fill:#fcf2e4"/><path d="M389.7,183.74H389v-2.49a1.13,1.13,0,1,0-2.25,0v2.49H386v-2.49a1.88,1.88,0,1,1,3.75,0Z" style="fill:#fcf2e4"/><path d="M386.7,183.74H386v-2.49a1.13,1.13,0,1,0-2.25,0v2.49H383v-2.49a1.88,1.88,0,1,1,3.75,0Z" style="fill:#fcf2e4"/><path d="M383.7,183.74H383v-2.49a1.13,1.13,0,1,0-2.25,0v2.49H380v-2.49a1.88,1.88,0,1,1,3.75,0Z" style="fill:#fcf2e4"/><path d="M380.7,183.74H380v-2.49a1.13,1.13,0,1,0-2.25,0v2.49H377v-2.49a1.88,1.88,0,1,1,3.75,0Z" style="fill:#fcf2e4"/><path d="M377.7,183.74H377v-2.49a1.13,1.13,0,1,0-2.25,0v2.49H374v-2.49a1.88,1.88,0,1,1,3.75,0Z" style="fill:#fcf2e4"/><path d="M374.7,183.74H374v-2.49a1.13,1.13,0,1,0-2.25,0v2.49H371v-2.49a1.88,1.88,0,1,1,3.75,0Z" style="fill:#fcf2e4"/><path d="M371.7,183.74H371v-2.49a1.13,1.13,0,1,0-2.25,0v2.49H368v-2.49a1.88,1.88,0,1,1,3.75,0Z" style="fill:#fcf2e4"/><path d="M368.7,183.74H368v-2.49a1.13,1.13,0,1,0-2.25,0v2.49H365v-2.49a1.88,1.88,0,1,1,3.75,0Z" style="fill:#fcf2e4"/><path d="M365.7,183.74H365v-2.49a1.13,1.13,0,1,0-2.25,0v2.49H362v-2.49a1.88,1.88,0,1,1,3.75,0Z" style="fill:#fcf2e4"/><path d="M362.7,183.74H362v-2.49a1.13,1.13,0,1,0-2.25,0v2.49H359v-2.49a1.88,1.88,0,1,1,3.75,0Z" style="fill:#fcf2e4"/><path d="M359.7,183.74H359v-2.49a1.13,1.13,0,1,0-2.25,0v2.49H356v-2.49a1.88,1.88,0,1,1,3.75,0Z" style="fill:#fcf2e4"/><path d="M356.7,183.74H356v-2.49a1.13,1.13,0,1,0-2.25,0v2.49H353v-2.49a1.88,1.88,0,1,1,3.75,0Z" style="fill:#fcf2e4"/><path d="M353.7,183.74H353v-2.49a1.13,1.13,0,1,0-2.25,0v2.49H350v-2.49a1.88,1.88,0,1,1,3.75,0Z" style="fill:#fcf2e4"/><path d="M350.7,183.74H350v-2.49a1.13,1.13,0,1,0-2.25,0v2.49H347v-2.49a1.88,1.88,0,1,1,3.75,0Z" style="fill:#fcf2e4"/><path d="M347.7,183.74H347v-2.49a1.13,1.13,0,1,0-2.25,0v2.49H344v-2.49a1.88,1.88,0,1,1,3.75,0Z" style="fill:#fcf2e4"/><path d="M344.7,183.74H344v-2.49a1.13,1.13,0,1,0-2.25,0v2.49H341v-2.49a1.88,1.88,0,1,1,3.75,0Z" style="fill:#fcf2e4"/><path d="M341.7,183.74H341v-2.49a1.13,1.13,0,1,0-2.25,0v2.49H338v-2.49a1.88,1.88,0,1,1,3.75,0Z" style="fill:#fcf2e4"/><path d="M338.7,183.74H338v-2.49a1.13,1.13,0,1,0-2.25,0v2.49H335v-2.49a1.88,1.88,0,1,1,3.75,0Z" style="fill:#fcf2e4"/><path d="M335.7,183.74H335v-2.49a1.13,1.13,0,1,0-2.25,0v2.49H332v-2.49a1.88,1.88,0,1,1,3.75,0Z" style="fill:#fcf2e4"/><path d="M332.7,183.74H332v-2.49a1.13,1.13,0,1,0-2.25,0v2.49H329v-2.49a1.88,1.88,0,1,1,3.75,0Z" style="fill:#fcf2e4"/><path d="M329.7,183.74H329v-2.49a1.13,1.13,0,1,0-2.25,0v2.49H326v-2.49a1.88,1.88,0,1,1,3.75,0Z" style="fill:#fcf2e4"/><path d="M326.7,183.74H326v-2.49a1.13,1.13,0,1,0-2.25,0v2.49H323v-2.49a1.88,1.88,0,1,1,3.75,0Z" style="fill:#fcf2e4"/><path d="M323.7,183.74H323v-2.49a1.13,1.13,0,1,0-2.25,0v2.49H320v-2.49a1.88,1.88,0,1,1,3.75,0Z" style="fill:#fcf2e4"/><path d="M320.7,183.74H320v-2.49a1.13,1.13,0,1,0-2.25,0v2.49H317v-2.49a1.88,1.88,0,1,1,3.75,0Z" style="fill:#fcf2e4"/><path d="M317.7,183.74H317v-2.49a1.13,1.13,0,1,0-2.25,0v2.49H314v-2.49a1.88,1.88,0,1,1,3.75,0Z" style="fill:#fcf2e4"/><path d="M314.7,183.74H314v-2.49a1.13,1.13,0,1,0-2.25,0v2.49H311v-2.49a1.88,1.88,0,1,1,3.75,0Z" style="fill:#fcf2e4"/><path d="M311.7,183.74H311v-2.49a1.13,1.13,0,1,0-2.25,0v2.49H308v-2.49a1.88,1.88,0,1,1,3.75,0Z" style="fill:#fcf2e4"/><path d="M308.7,183.74H308v-2.49a1.13,1.13,0,1,0-2.25,0v2.49H305v-2.49a1.88,1.88,0,1,1,3.75,0Z" style="fill:#fcf2e4"/><path d="M305.7,183.74H305v-2.49a1.13,1.13,0,1,0-2.25,0v2.49H302v-2.49a1.88,1.88,0,1,1,3.75,0Z" style="fill:#fcf2e4"/><path d="M302.7,183.74H302v-2.49a1.13,1.13,0,1,0-2.25,0v2.49H299v-2.49a1.88,1.88,0,1,1,3.75,0Z" style="fill:#fcf2e4"/><path d="M299.7,183.74H299v-2.49a1.13,1.13,0,1,0-2.25,0v2.49H296v-2.49a1.88,1.88,0,1,1,3.75,0Z" style="fill:#fcf2e4"/><path d="M296.7,183.74H296v-2.49a1.13,1.13,0,1,0-2.25,0v2.49H293v-2.49a1.88,1.88,0,1,1,3.75,0Z" style="fill:#fcf2e4"/><path d="M293.7,183.74H293v-2.49a1.13,1.13,0,1,0-2.25,0v2.49H290v-2.49a1.88,1.88,0,1,1,3.75,0Z" style="fill:#fcf2e4"/><path d="M290.7,183.74H290v-2.49a1.13,1.13,0,1,0-2.25,0v2.49H287v-2.49a1.88,1.88,0,1,1,3.75,0Z" style="fill:#fcf2e4"/><path d="M287.7,183.74H287v-2.49a1.13,1.13,0,1,0-2.25,0v2.49H284v-2.49a1.88,1.88,0,1,1,3.75,0Z" style="fill:#fcf2e4"/><path d="M284.7,183.74H284v-2.49a1.13,1.13,0,1,0-2.25,0v2.49H281v-2.49a1.88,1.88,0,1,1,3.75,0Z" style="fill:#fcf2e4"/><path d="M281.7,183.74H281v-2.49a1.13,1.13,0,1,0-2.25,0v2.49H278v-2.49a1.88,1.88,0,1,1,3.75,0Z" style="fill:#fcf2e4"/><path d="M278.7,183.74H278v-2.49a1.13,1.13,0,1,0-2.25,0v2.49H275v-2.49a1.88,1.88,0,1,1,3.75,0Z" style="fill:#fcf2e4"/><path d="M275.7,183.74H275v-2.49a1.13,1.13,0,1,0-2.25,0v2.49H272v-2.49a1.88,1.88,0,1,1,3.75,0Z" style="fill:#fcf2e4"/><path d="M272.7,183.74H272v-2.49a1.13,1.13,0,1,0-2.25,0v2.49H269v-2.49a1.88,1.88,0,1,1,3.75,0Z" style="fill:#fcf2e4"/><path d="M269.7,183.74H269v-2.49a1.13,1.13,0,1,0-2.25,0v2.49H266v-2.49a1.88,1.88,0,1,1,3.75,0Z" style="fill:#fcf2e4"/><path d="M266.7,183.74H266v-2.49a1.13,1.13,0,1,0-2.25,0v2.49H263v-2.49a1.88,1.88,0,1,1,3.75,0Z" style="fill:#fcf2e4"/><path d="M263.7,183.74H263v-2.49a1.13,1.13,0,1,0-2.25,0v2.49H260v-2.49a1.88,1.88,0,1,1,3.75,0Z" style="fill:#fcf2e4"/><g style="opacity:0.5"><rect x="258.84" y="172.76" width="147.86" height="3.67" style="fill:#7c2b1c"/></g><rect x="372.63" y="227.08" width="9.65" height="9.65" style="fill:#7c2b1c"/><rect x="384.29" y="227.08" width="9.65" height="9.65" style="fill:#7c2b1c"/><rect x="345.32" y="227.08" width="9.65" height="9.65" style="fill:#7c2b1c"/><rect x="356.98" y="227.08" width="9.65" height="9.65" style="fill:#7c2b1c"/><rect x="318.01" y="227.08" width="9.65" height="9.65" style="fill:#7c2b1c"/><rect x="329.67" y="227.08" width="9.65" height="9.65" style="fill:#7c2b1c"/><rect x="290.7" y="227.08" width="9.66" height="9.65" style="fill:#7c2b1c"/><rect x="302.36" y="227.08" width="9.65" height="9.65" style="fill:#7c2b1c"/><rect x="263.39" y="227.08" width="9.65" height="9.65" style="fill:#7c2b1c"/><rect x="275.05" y="227.08" width="9.65" height="9.65" style="fill:#7c2b1c"/><rect x="372.63" y="235.33" width="9.65" height="1.4" style="fill:#d04c31"/><rect x="384.29" y="235.33" width="9.65" height="1.4" style="fill:#d04c31"/><rect x="345.32" y="235.33" width="9.65" height="1.4" style="fill:#d04c31"/><rect x="356.98" y="235.33" width="9.65" height="1.4" style="fill:#d04c31"/><rect x="318.01" y="235.33" width="9.65" height="1.4" style="fill:#d04c31"/><rect x="329.67" y="235.33" width="9.65" height="1.4" style="fill:#d04c31"/><rect x="290.7" y="235.33" width="9.66" height="1.4" style="fill:#d04c31"/><rect x="302.36" y="235.33" width="9.65" height="1.4" style="fill:#d04c31"/><rect x="263.39" y="235.33" width="9.65" height="1.4" style="fill:#d04c31"/><rect x="275.05" y="235.33" width="9.65" height="1.4" style="fill:#d04c31"/><rect x="372.63" y="212.12" width="9.65" height="1.4" style="fill:#d04c31"/><rect x="384.29" y="212.12" width="9.65" height="1.4" style="fill:#d04c31"/><rect x="345.32" y="212.12" width="9.65" height="1.4" style="fill:#d04c31"/><rect x="356.98" y="212.12" width="9.65" height="1.4" style="fill:#d04c31"/><rect x="318.01" y="212.12" width="9.65" height="1.4" style="fill:#d04c31"/><rect x="329.67" y="212.12" width="9.65" height="1.4" style="fill:#d04c31"/><rect x="290.7" y="212.12" width="9.66" height="1.4" style="fill:#d04c31"/><rect x="302.36" y="212.12" width="9.65" height="1.4" style="fill:#d04c31"/><rect x="263.39" y="212.12" width="9.65" height="1.4" style="fill:#d04c31"/><rect x="275.05" y="212.12" width="9.65" height="1.4" style="fill:#d04c31"/><path d="M393.94,260.08H372.63v-8.34a10.66,10.66,0,0,1,10.66-10.66h0a10.66,10.66,0,0,1,10.65,10.66Z" style="fill:#7c2b1c"/><path d="M366.63,260.08H345.32v-8.34A10.66,10.66,0,0,1,356,241.08h0a10.66,10.66,0,0,1,10.65,10.66Z" style="fill:#7c2b1c"/><path d="M339.32,260.08H318v-8.34a10.66,10.66,0,0,1,10.66-10.66h0a10.66,10.66,0,0,1,10.65,10.66Z" style="fill:#7c2b1c"/><path d="M312,260.08H290.7v-8.34a10.66,10.66,0,0,1,10.66-10.66h0A10.66,10.66,0,0,1,312,251.74Z" style="fill:#7c2b1c"/><path d="M284.7,260.08H263.39v-8.34a10.66,10.66,0,0,1,10.66-10.66h0a10.66,10.66,0,0,1,10.65,10.66Z" style="fill:#7c2b1c"/><path d="M383.29,241.08h0a10.66,10.66,0,0,0-10.66,10.66v2a10.66,10.66,0,0,1,10.66-10.66h0a10.66,10.66,0,0,1,10.65,10.66v-2A10.66,10.66,0,0,0,383.29,241.08Z" style="fill:#5d1d18"/><path d="M356,241.08h0a10.66,10.66,0,0,0-10.66,10.66v2A10.66,10.66,0,0,1,356,243.08h0a10.66,10.66,0,0,1,10.65,10.66v-2A10.66,10.66,0,0,0,356,241.08Z" style="fill:#5d1d18"/><path d="M328.67,241.08h0A10.66,10.66,0,0,0,318,251.74v2a10.66,10.66,0,0,1,10.66-10.66h0a10.66,10.66,0,0,1,10.65,10.66v-2A10.66,10.66,0,0,0,328.67,241.08Z" style="fill:#5d1d18"/><path d="M301.36,241.08h0a10.66,10.66,0,0,0-10.66,10.66v2a10.66,10.66,0,0,1,10.66-10.66h0A10.66,10.66,0,0,1,312,253.74v-2A10.66,10.66,0,0,0,301.36,241.08Z" style="fill:#5d1d18"/><path d="M274.05,241.08h0a10.66,10.66,0,0,0-10.66,10.66v2a10.66,10.66,0,0,1,10.66-10.66h0a10.66,10.66,0,0,1,10.65,10.66v-2A10.66,10.66,0,0,0,274.05,241.08Z" style="fill:#5d1d18"/><rect x="406.7" y="145.55" width="51.81" height="114.53" style="fill:#ba4127"/><rect x="203.6" y="216.25" width="254.91" height="2" style="fill:#f7ded0"/><rect x="203.6" y="221.75" width="254.91" height="2" style="fill:#f7ded0"/><path d="M447.1,224.83h-29v-38.9a14.5,14.5,0,0,1,14.5-14.5h0a14.5,14.5,0,0,1,14.5,14.5Z" style="fill:#ba4127"/><path d="M447.1,224.83h-29v-38.9a14.5,14.5,0,1,1,29,0Zm-27-2h25v-36.9a12.5,12.5,0,1,0-25,0Z" style="fill:#f7ded0"/><polygon points="441.51 108.58 423.7 108.58 406.7 145.55 458.51 145.55 441.51 108.58" style="fill:#f4e9d2"/><polygon points="441.51 108.58 423.7 108.58 406.7 145.55 458.51 145.55 441.51 108.58" style="fill:#f4e9d2"/><polygon points="410.38 145.87 409.02 145.24 426.02 108.27 427.38 108.9 410.38 145.87" style="fill:#e6dac0"/><polygon points="454.83 145.87 437.83 108.9 439.19 108.27 456.19 145.24 454.83 145.87" style="fill:#e6dac0"/><rect x="416.1" y="130.43" width="33" height="1.5" style="fill:#e6dac0"/><polygon points="424.6 145.55 432.6 128.13 440.6 145.55 424.6 145.55" style="fill:#ba4127"/><path d="M414.22,154.47h-1v-2.32a3,3,0,0,0-6,0v2.32h-1v-2.32a4,4,0,0,1,8,0Z" style="fill:#fcf2e4"/><path d="M421.24,154.47h-1v-2.32a3,3,0,1,0-6,0v2.32h-1v-2.32a4,4,0,1,1,8,0Z" style="fill:#fcf2e4"/><path d="M452,154.47h-1v-2.32a3,3,0,1,0-6,0v2.32h-1v-2.32a4,4,0,1,1,8,0Z" style="fill:#fcf2e4"/><path d="M459,154.47h-1v-2.32a3,3,0,1,0-6,0v2.32h-1v-2.32a4,4,0,1,1,8,0Z" style="fill:#fcf2e4"/><path d="M439.93,149.55h-1v-1.91a6.33,6.33,0,1,0-12.65,0v1.91h-1v-1.91a7.33,7.33,0,1,1,14.65,0Z" style="fill:#fcf2e4"/><path d="M432.6,142.81h0a4.82,4.82,0,0,0-4.82,4.83v11.91h9.65V147.64A4.83,4.83,0,0,0,432.6,142.81Z" style="fill:#7c2b1c"/><path d="M432.6,142.81a4.82,4.82,0,0,0-4.82,4.83v1.41a4.83,4.83,0,0,1,9.65,0v-1.41A4.83,4.83,0,0,0,432.6,142.81Z" style="fill:#5d1d18"/><rect x="418.1" y="185.93" width="9.67" height="38.9" style="fill:#7c2b1c"/><rect x="427.77" y="185.93" width="9.67" height="38.9" style="fill:#7c2b1c"/><rect x="437.44" y="185.93" width="9.67" height="38.9" style="fill:#7c2b1c"/><rect x="418.1" y="223.17" width="29" height="1.67" style="fill:#d04c31"/><rect x="427.27" y="188.93" width="1" height="23.65" style="fill:#f7ded0"/><rect x="426.77" y="212.58" width="2" height="10.58" style="fill:#f7ded0"/><rect x="436.94" y="188.93" width="1" height="23.65" style="fill:#f7ded0"/><rect x="436.44" y="212.58" width="2" height="10.58" style="fill:#f7ded0"/><rect x="425.77" y="185.93" width="4" height="5" style="fill:#f7ded0"/><rect x="435.44" y="185.93" width="4" height="5" style="fill:#f7ded0"/><rect x="418.1" y="185.93" width="29" height="1.5" style="fill:#f4e9d2"/><path d="M443.26,260.08H422V246.74a10.66,10.66,0,0,1,10.65-10.66h0a10.66,10.66,0,0,1,10.66,10.66Z" style="fill:#7c2b1c"/><path d="M432.6,236.08A10.66,10.66,0,0,0,422,246.74v2a10.66,10.66,0,1,1,21.31,0v-2A10.66,10.66,0,0,0,432.6,236.08Z" style="fill:#5d1d18"/><rect x="418.1" y="194.46" width="29" height="1" style="fill:#f7ded0"/><rect x="422.6" y="106.73" width="20" height="1.86" style="fill:#e6dac0"/><rect x="426.1" y="98.69" width="13" height="8.23" style="fill:#e6dac0"/><rect x="437.47" y="99.56" width="0.75" height="6.56" style="fill:#9fd1d3"/><rect x="435.97" y="99.56" width="0.75" height="6.56" style="fill:#9fd1d3"/><rect x="434.47" y="99.56" width="0.75" height="6.56" style="fill:#9fd1d3"/><rect x="432.97" y="99.56" width="0.75" height="6.56" style="fill:#9fd1d3"/><rect x="431.47" y="99.56" width="0.75" height="6.56" style="fill:#9fd1d3"/><rect x="429.97" y="99.56" width="0.75" height="6.56" style="fill:#9fd1d3"/><rect x="428.47" y="99.56" width="0.75" height="6.56" style="fill:#9fd1d3"/><rect x="426.97" y="99.56" width="0.75" height="6.56" style="fill:#9fd1d3"/><rect x="426.1" y="93.38" width="0.89" height="5.31" style="fill:#e6dac0"/><rect x="438.22" y="93.38" width="0.89" height="5.31" style="fill:#e6dac0"/><polygon points="458.51 146.55 439.96 146.55 432.6 130.53 425.25 146.55 406.7 146.55 406.7 144.55 423.96 144.55 432.6 125.73 441.25 144.55 458.51 144.55 458.51 146.55" style="fill:#fcf2e4"/><rect x="422.6" y="116.74" width="20" height="1.5" style="fill:#e6dac0"/><rect x="258.84" y="170.79" width="147.86" height="1.97" style="fill:#f4e9d2"/></symbol></defs><title>Asset 8</title><g id="f607e791-8012-4ca9-952c-4825526b0edf" data-name="Layer 2"><g id="b6d469b6-69a2-4a26-94e0-4e25e9f292e7" data-name="Layer 1"><g style="opacity:0.9"><g style="clip-path:url(#b4850c51-85c9-4aa0-be39-0d7b2ed30eaa)"><use width="459.01" height="260.08" transform="translate(0 0) scale(1.3)" xlink:href="#eda010f9-c307-4776-bfec-c9ce36032eb9"/></g></g></g></g></svg>